<svg width="108" height="64" viewBox="0 0 108 64" fill="none" xmlns="http://www.w3.org/2000/svg">
<g clip-path="url(#clip0_10893_12725)">
<path d="M10.8577 21.5673C10.8577 20.9957 10.5441 20.8845 10.1679 21.1068L2.6898 25.4891C2.18813 25.7749 2 26.2672 2 26.7435V48.4327C2 49.0043 2.31355 49.1155 2.6898 48.8932L10.1679 44.5109C10.6695 44.2251 10.8577 43.7328 10.8577 43.2565V21.5673Z" fill="#141414" style="fill:#141414;fill:color(display-p3 0.0784 0.0784 0.0784);fill-opacity:1;"/>
<path d="M19.6992 35.7619V24.0122H22.5055V30.3475C23.4304 29.1884 24.9354 28.4104 26.7226 28.4104C30.1403 28.4104 32.8838 31.1573 32.8838 35.0156V35.873C32.8838 39.6837 30.0933 42.4464 26.2366 42.4464C22.5838 42.4306 19.6992 39.9536 19.6992 35.7619ZM30.0619 35.8095V35.1109C30.0619 32.5704 28.5726 30.9508 26.2837 30.9508C23.9791 30.9508 22.5055 32.5863 22.5055 35.1109V35.8095C22.5055 38.3023 23.9948 39.8901 26.2837 39.8901C28.5882 39.906 30.0619 38.2388 30.0619 35.8095Z" fill="#141414" style="fill:#141414;fill:color(display-p3 0.0784 0.0784 0.0784);fill-opacity:1;"/>
<path d="M36.5861 23.6948C37.6052 23.6948 38.3734 24.3458 38.3734 25.3302V25.5049C38.3734 26.4893 37.6052 27.1403 36.5861 27.1403C35.5671 27.1403 34.7676 26.4893 34.7676 25.5049V25.3302C34.7676 24.3458 35.5671 23.6948 36.5861 23.6948ZM37.9971 42.1291H35.1909V28.7281H37.9971V42.1291Z" fill="#141414" style="fill:#141414;fill:color(display-p3 0.0784 0.0784 0.0784);fill-opacity:1;"/>
<path d="M50.6797 35.7619V24.0122H53.4859V30.3475C54.4109 29.1884 55.9159 28.4104 57.7031 28.4104C61.1208 28.4104 63.8643 31.1573 63.8643 35.0156V35.873C63.8643 39.6837 61.0737 42.4464 57.2171 42.4464C53.5643 42.4306 50.6797 39.9536 50.6797 35.7619ZM61.0424 35.8095V35.1109C61.0424 32.5704 59.553 30.9508 57.2641 30.9508C54.9596 30.9508 53.4859 32.5863 53.4859 35.1109V35.8095C53.4859 38.3023 54.9753 39.8901 57.2641 39.8901C59.5687 39.906 61.0424 38.2388 61.0424 35.8095Z" fill="#141414" style="fill:#141414;fill:color(display-p3 0.0784 0.0784 0.0784);fill-opacity:1;"/>
<path d="M49.0783 28.95L48.4198 31.5381C47.9025 31.2999 47.4008 31.157 46.7894 31.157C45.0022 31.157 43.6539 32.5543 43.6539 34.8883V42.1287H40.832V28.7277H43.6383V30.5854C44.4064 29.0135 45.6763 28.4102 47.0559 28.4102C47.8241 28.4102 48.5139 28.5848 49.0783 28.95Z" fill="#141414" style="fill:#141414;fill:color(display-p3 0.0784 0.0784 0.0784);fill-opacity:1;"/>
<path d="M65.6191 35.8569V34.9836C65.6191 31.157 68.347 28.4102 71.7803 28.4102C73.5675 28.4102 75.0725 29.1882 75.9975 30.3473V28.7277H78.8037V42.1287H75.9975V40.4932C75.0725 41.6523 73.5675 42.4303 71.7803 42.4303C68.347 42.4303 65.6191 39.6993 65.6191 35.8569ZM75.9975 35.7299V35.1106C75.9975 32.5702 74.5395 30.9506 72.235 30.9506C69.9304 30.9506 68.4724 32.586 68.4724 35.1106V35.7299C68.4724 38.2703 69.9304 39.8899 72.235 39.8899C74.5395 39.9058 75.9975 38.2703 75.9975 35.7299Z" fill="#141414" style="fill:#141414;fill:color(display-p3 0.0784 0.0784 0.0784);fill-opacity:1;"/>
<path d="M84.4156 34.3968V42.1294H81.6094V28.7284H84.4156V30.4115C85.1054 29.3794 86.3596 28.4268 88.3036 28.4268C91.2979 28.4268 93.2576 30.5703 93.2576 34.1904V42.1294H90.4514V34.3651C90.4514 32.1104 89.3539 30.9513 87.5667 30.9513C85.8736 30.9513 84.4156 32.2375 84.4156 34.3968Z" fill="#141414" style="fill:#141414;fill:color(display-p3 0.0784 0.0784 0.0784);fill-opacity:1;"/>
<path d="M98.8394 42.1289H96.0332V24.0122H98.8394V34.4599L104.185 28.7121H107.838L102.524 34.1423L108.356 42.113H104.907L100.611 36.0794L98.8394 37.8895V42.1289Z" fill="#141414" style="fill:#141414;fill:color(display-p3 0.0784 0.0784 0.0784);fill-opacity:1;"/>
</g>
<defs>
<clipPath id="clip0_10893_12725">
<rect width="108" height="64" fill="white" style="fill:white;fill-opacity:1;"/>
</clipPath>
</defs>
</svg>
