<svg width="98" height="64" viewBox="0 0 98 64" fill="none" xmlns="http://www.w3.org/2000/svg">
<g clip-path="url(#clip0_10893_12727)">
<path d="M77.1331 30.9842C77.1331 24.3501 81.7937 19.8869 87.733 19.8869C93.6723 19.8869 98.3329 24.3501 98.3329 30.9842C98.3329 37.6183 93.675 42.0788 87.733 42.0788C81.791 42.0788 77.1331 37.5939 77.1331 30.9842ZM93.8805 30.9842C93.8805 26.8994 91.2771 24.3312 87.7303 24.3312C84.1835 24.3312 81.5801 26.8994 81.5801 30.9842C81.5801 35.069 84.1402 37.6372 87.7303 37.6372C91.3204 37.6372 93.8805 35.069 93.8805 30.9842ZM71.675 19.8679C71.0451 19.8679 70.4585 20.0788 69.9746 20.4789L63.6202 25.76C62.6768 26.5385 62.5497 27.9497 63.3472 28.8986C64.1447 29.8475 65.5288 29.9502 66.475 29.1716L69.8691 26.375V42.0842H74.3189V22.5199C74.3189 21.0682 73.1213 19.8652 71.675 19.8652V19.8679Z" fill="#141414" style="fill:#141414;fill:color(display-p3 0.0784 0.0784 0.0784);fill-opacity:1;"/>
<path d="M78.889 17.0185L82.1268 15.3878" stroke="#141414" style="stroke:#141414;stroke:color(display-p3 0.0784 0.0784 0.0784);stroke-opacity:1;" stroke-width="3.63237" stroke-linecap="round"/>
<path d="M74.0364 12.1844L75.4582 7.67271" stroke="#141414" style="stroke:#141414;stroke:color(display-p3 0.0784 0.0784 0.0784);stroke-opacity:1;" stroke-width="3.63237" stroke-linecap="round"/>
<path d="M63.2933 18.4015L59.8301 17.7588" stroke="#141414" style="stroke:#141414;stroke:color(display-p3 0.0784 0.0784 0.0784);stroke-opacity:1;" stroke-width="3.63237" stroke-linecap="round"/>
<path d="M67.0685 12.8457L64.627 8.70215" stroke="#141414" style="stroke:#141414;stroke:color(display-p3 0.0784 0.0784 0.0784);stroke-opacity:1;" stroke-width="3.63237" stroke-linecap="round"/>
<path d="M14.0386 28.7329C13.1141 26.7243 11.3542 25.77 9.08063 25.77C6.62056 25.77 5.0499 26.9135 4.0929 28.6059V26.1539H0V42.0822H4.21996V34.4695C4.21996 31.5066 5.30942 29.817 7.67217 29.817C9.55912 29.817 10.5837 30.9605 10.5837 33.2557V42.0822H14.8037V34.4695C14.8037 31.5039 15.9229 29.817 18.3207 29.817C20.2077 29.817 21.1971 30.9605 21.1971 33.2557V42.0822H25.4495V32.3987C25.4495 28.0976 23.0192 25.7727 19.4048 25.7727C16.9177 25.7673 15.0632 26.9162 14.0386 28.7329Z" fill="#141414" style="fill:#141414;fill:color(display-p3 0.0784 0.0784 0.0784);fill-opacity:1;"/>
<path d="M43.1681 23.4106H38.9863V42.0818H43.1681V23.4106Z" fill="#141414" style="fill:#141414;fill:color(display-p3 0.0784 0.0784 0.0784);fill-opacity:1;"/>
<path d="M52.129 23.4106H47.9473V42.0818H52.129V23.4106Z" fill="#141414" style="fill:#141414;fill:color(display-p3 0.0784 0.0784 0.0784);fill-opacity:1;"/>
<path d="M34.2813 29.687H30.0996V42.0829H34.2813V29.687Z" fill="#141414" style="fill:#141414;fill:color(display-p3 0.0784 0.0784 0.0784);fill-opacity:1;"/>
<path d="M61.0821 29.687H56.9004V42.0829H61.0821V29.687Z" fill="#141414" style="fill:#141414;fill:color(display-p3 0.0784 0.0784 0.0784);fill-opacity:1;"/>
<path d="M61.3807 25.8051C61.3807 24.4854 60.3108 23.4155 58.9911 23.4155C57.6714 23.4155 56.6016 24.4854 56.6016 25.8051C56.6016 27.1248 57.6714 28.1946 58.9911 28.1946C60.3108 28.1946 61.3807 27.1248 61.3807 25.8051Z" fill="#141414" style="fill:#141414;fill:color(display-p3 0.0784 0.0784 0.0784);fill-opacity:1;"/>
<path d="M34.5779 25.8051C34.5779 24.4854 33.5081 23.4155 32.1884 23.4155C30.8687 23.4155 29.7988 24.4854 29.7988 25.8051C29.7988 27.1248 30.8687 28.1946 32.1884 28.1946C33.5081 28.1946 34.5779 27.1248 34.5779 25.8051Z" fill="#141414" style="fill:#141414;fill:color(display-p3 0.0784 0.0784 0.0784);fill-opacity:1;"/>
</g>
<defs>
<clipPath id="clip0_10893_12727">
<rect width="98" height="64" fill="white" style="fill:white;fill-opacity:1;"/>
</clipPath>
</defs>
</svg>
