<svg width="16" height="16" viewBox="0 0 16 16" fill="none" xmlns="http://www.w3.org/2000/svg">
<path d="M13.1338 6.00366C13.568 5.96496 13.9555 6.2652 13.9971 6.67358C14.0378 7.0813 13.7193 7.44336 13.2861 7.48315L13.2822 7.48413C13.2716 7.48547 13.2511 7.48825 13.2227 7.49292C13.1644 7.5025 13.0699 7.51956 12.9463 7.55054C12.6982 7.61276 12.3303 7.72947 11.8867 7.93921C11.0032 8.35711 9.8009 9.1569 8.64355 10.6882C8.62404 10.7141 8.60327 10.7387 8.58105 10.7615C8.57677 10.7658 8.57179 10.7699 8.56738 10.7742C8.55454 10.7867 8.54094 10.7988 8.52734 10.8103C8.50554 10.8287 8.48338 10.8477 8.45898 10.864C8.44655 10.8723 8.43268 10.8789 8.41992 10.8865C8.41627 10.8886 8.41286 10.8912 8.40918 10.8933C8.3733 10.9137 8.33568 10.9306 8.29785 10.9451C8.27078 10.9554 8.24287 10.963 8.21484 10.9705C8.19482 10.9758 8.17456 10.9813 8.1543 10.9851C8.12618 10.9904 8.09791 10.9935 8.06934 10.9958C8.04632 10.9977 8.02302 10.9998 8 10.9998C7.97693 10.9998 7.95373 10.9978 7.93066 10.9958C7.90194 10.9934 7.87299 10.9904 7.84473 10.9851C7.82462 10.9813 7.80503 10.9758 7.78516 10.9705C7.75698 10.963 7.72838 10.9555 7.70117 10.9451C7.66353 10.9306 7.62653 10.9137 7.59082 10.8933C7.58701 10.8911 7.58287 10.8887 7.5791 10.8865C7.56672 10.8791 7.55407 10.8721 7.54199 10.864C7.5172 10.8474 7.49381 10.829 7.47168 10.8103C7.42957 10.7746 7.39067 10.7335 7.35645 10.6882C6.19923 9.15714 4.99772 8.35712 4.11426 7.93921C3.67042 7.7293 3.30186 7.61275 3.05371 7.55054C2.93037 7.51962 2.83661 7.50251 2.77832 7.49292C2.74955 7.4882 2.72839 7.48547 2.71777 7.48413L2.71387 7.48315C2.28073 7.44332 1.96313 7.0813 2.00391 6.67358C2.04545 6.26529 2.43113 5.96512 2.86523 6.00366L2.86719 6.00464L2.86914 6.00366L2.875 6.00464C2.87858 6.00497 2.88294 6.00512 2.8877 6.00562C2.89785 6.0067 2.91144 6.00858 2.92676 6.0105C2.95745 6.01435 2.99865 6.01985 3.04883 6.02808C3.14989 6.04467 3.28994 6.07213 3.46094 6.11499C3.80347 6.2009 4.27487 6.35128 4.82422 6.61108C5.7491 7.04857 6.88342 7.79279 8 9.04468C9.11659 7.79269 10.2509 7.04862 11.1758 6.61108C11.7253 6.3512 12.1975 6.2009 12.54 6.11499C12.7109 6.07217 12.8511 6.04465 12.9521 6.02808C13.0022 6.01987 13.0436 6.01434 13.0742 6.0105C13.0893 6.00861 13.1023 6.0067 13.1123 6.00562C13.1173 6.00508 13.1223 6.005 13.126 6.00464L13.1309 6.00366L13.1328 6.00464L13.1338 6.00366C13.1342 6.00746 13.1405 6.0667 13.209 6.7439C13.2225 6.87769 13.235 6.98812 13.2441 7.07788L13.1338 6.00366Z" fill="white" style="fill:white;fill-opacity:1;"/>
</svg>
