<svg width="16" height="20" viewBox="0 0 16 20" fill="none" xmlns="http://www.w3.org/2000/svg">
<path d="M0.399029 19.0842C0.134885 18.932 0 18.5579 0 18.1839V1.28663C0 0.988633 0.0674439 0.760378 0.134885 0.462378C0.202326 0.310208 0.337205 0.164377 0.466467 0.012207C3.3327 3.23948 6.13149 6.4731 8.93029 9.70038C6.06405 12.7057 3.26526 15.8569 0.399029 19.0905V19.0842Z" fill="#4385F5" style="fill:#4385F5;fill:color(display-p3 0.2627 0.5216 0.9608);fill-opacity:1;"/>
<path d="M11.907 6.56471C11.0893 7.46719 10.2026 8.36967 9.37915 9.34842C6.64979 6.25965 3.84557 3.17724 1.11621 0.0884734C1.11621 0.0884734 1.11621 0.012207 1.18531 0.012207C4.73808 2.19849 8.2851 4.37843 11.907 6.56471Z" fill="#36AA57" style="fill:#36AA57;fill:color(display-p3 0.2118 0.6667 0.3412);fill-opacity:1;"/>
<path d="M1.11621 19.0846C3.86316 16.1079 6.68545 13.1311 9.43241 10.1606C10.1916 10.9771 11.0145 11.7997 11.907 12.6915C8.3313 14.8519 4.76142 17.0059 1.18575 19.0909H1.11621V19.0846Z" fill="#EE4336" style="fill:#EE4336;fill:color(display-p3 0.9333 0.2627 0.2118);fill-opacity:1;"/>
<path d="M12.2915 12.1896C11.398 11.3457 10.5741 10.5019 9.6748 9.65806C10.5683 8.7429 11.4618 7.82775 12.3553 6.9126C12.628 7.05522 12.9065 7.1919 13.1792 7.40583C13.8696 7.82775 14.6239 8.17836 15.3143 8.60028C15.5232 8.67159 15.6567 8.81422 15.7959 9.0222C16.0686 9.37282 16.0686 9.72937 15.7959 10.08C15.6567 10.2226 15.5232 10.3593 15.3143 10.4306C14.3512 11.0664 13.3185 11.625 12.2857 12.1896H12.2915Z" fill="#FEBC08" style="fill:#FEBC08;fill:color(display-p3 0.9961 0.7373 0.0314);fill-opacity:1;"/>
</svg>
