<svg width="24" height="24" viewBox="0 0 24 24" fill="none" xmlns="http://www.w3.org/2000/svg">
<path d="M12 1C15.4318 1 18.2233 1.91668 20.1533 3.84668C22.0833 5.77668 23 8.56818 23 12C23 15.4318 22.0833 18.2233 20.1533 20.1533C18.2233 22.0833 15.4318 23 12 23C8.56818 23 5.77668 22.0833 3.84668 20.1533C1.91668 18.2233 1 15.4318 1 12C1 8.56818 1.91668 5.77668 3.84668 3.84668C5.77668 1.91668 8.56818 1 12 1ZM9.00781 13C9.04753 15.7472 9.26051 17.7646 9.73926 19.1113C10.0008 19.8469 10.315 20.3043 10.6523 20.5791C10.9731 20.8403 11.3914 21 12 21C12.6086 21 13.0269 20.8403 13.3477 20.5791C13.685 20.3043 13.9992 19.8469 14.2607 19.1113C14.7395 17.7646 14.9525 15.7472 14.9922 13H9.00781ZM3.03223 13C3.19258 15.5734 3.98176 17.4603 5.26074 18.7393C6.00491 19.4834 6.95575 20.0596 8.12695 20.4453C8.02693 20.2325 7.9361 20.0108 7.85449 19.7812C7.26096 18.1116 7.04637 15.8053 7.00781 13H3.03223ZM16.9922 13C16.9536 15.8053 16.739 18.1116 16.1455 19.7812C16.0639 20.0109 15.9722 20.2324 15.8721 20.4453C17.0437 20.0596 17.9949 19.4836 18.7393 18.7393C20.0182 17.4603 20.8074 15.5734 20.9678 13H16.9922ZM8.12695 3.55371C6.95561 3.9394 6.00497 4.51651 5.26074 5.26074C3.98176 6.53973 3.19258 8.4266 3.03223 11H7.00781C7.04637 8.19475 7.26096 5.88843 7.85449 4.21875C7.9362 3.98893 8.02678 3.7668 8.12695 3.55371ZM12 3C11.3914 3 10.9731 3.15967 10.6523 3.4209C10.315 3.69571 10.0008 4.15314 9.73926 4.88867C9.26051 6.23542 9.04753 8.25276 9.00781 11H14.9922C14.9525 8.25276 14.7395 6.23542 14.2607 4.88867C13.9992 4.15314 13.685 3.69571 13.3477 3.4209C13.0269 3.15967 12.6086 3 12 3ZM15.8721 3.55371C15.9723 3.76691 16.0638 3.98879 16.1455 4.21875C16.739 5.88843 16.9536 8.19475 16.9922 11H20.9678C20.8074 8.4266 20.0182 6.53973 18.7393 5.26074C17.9948 4.51633 17.0438 3.9394 15.8721 3.55371Z" fill="#141414" style="fill:#141414;fill:color(display-p3 0.0784 0.0784 0.0784);fill-opacity:1;"/>
</svg>
