<svg width="16" height="7" viewBox="0 0 16 7" fill="none" xmlns="http://www.w3.org/2000/svg">
<path d="M8.08645 6.49536C8.12235 6.49236 8.15854 6.48833 8.19387 6.48169C8.21894 6.47695 8.24331 6.46975 8.26809 6.46313C8.3032 6.4538 8.33866 6.44485 8.37258 6.43188C8.41985 6.41369 8.46642 6.39204 8.51125 6.36645C8.51601 6.36375 8.52118 6.36143 8.5259 6.35864C8.5415 6.34941 8.55757 6.34048 8.57278 6.33032C8.6038 6.30955 8.63298 6.28631 8.66067 6.26294C8.71324 6.21831 8.76148 6.16714 8.80422 6.1106C10.2508 4.19665 11.7526 3.19647 12.857 2.67407C13.4114 2.41184 13.872 2.26652 14.1822 2.18872C14.3363 2.15008 14.454 2.12845 14.5269 2.11645C14.5627 2.11058 14.5888 2.10642 14.6021 2.10474L14.607 2.10376C15.1485 2.054 15.5457 1.60176 15.4947 1.09204C15.4427 0.58156 14.9603 0.205772 14.4175 0.25415L14.5542 1.59692C14.5428 1.48473 14.5272 1.34715 14.5103 1.17993C14.421 0.296479 14.4175 0.25415 14.4175 0.25415L14.4155 0.256103L14.4126 0.25415L14.4068 0.256103C14.4022 0.25655 14.3963 0.256437 14.3902 0.25708C14.3775 0.258441 14.3605 0.260538 14.3413 0.262939C14.303 0.267757 14.2517 0.275111 14.189 0.2854C14.0627 0.306123 13.888 0.340274 13.6743 0.393799C13.2461 0.501186 12.6561 0.690043 11.9693 1.01489C10.8133 1.56175 9.396 2.49137 8.00051 4.05591C6.60476 2.49085 5.18599 1.56185 4.02981 1.01489C3.34316 0.690134 2.75388 0.501202 2.3257 0.393799C2.11184 0.340198 1.93643 0.306139 1.81008 0.2854C1.74733 0.27511 1.6961 0.267757 1.65774 0.262939C1.63859 0.260539 1.6216 0.258441 1.60891 0.25708C1.60281 0.256443 1.59684 0.256549 1.59231 0.256103L1.58645 0.25415L1.58352 0.256103L1.58254 0.25415C1.58254 0.25415 1.57819 0.295779 1.48879 1.17993C1.47188 1.34715 1.45622 1.48473 1.44485 1.59692L1.58254 0.25415C1.03976 0.20578 0.556358 0.581564 0.504416 1.09204C0.45338 1.60176 0.850602 2.05401 1.39211 2.10376L1.39699 2.10474C1.4103 2.10641 1.43634 2.11057 1.47219 2.11645C1.54507 2.12844 1.6627 2.15007 1.81692 2.18872C2.12709 2.26651 2.58759 2.41182 3.14211 2.67407C4.24647 3.19646 5.74829 4.19665 7.19485 6.1106C7.21922 6.14284 7.24621 6.17302 7.27395 6.20142C7.27923 6.20679 7.28511 6.21177 7.29055 6.21704C7.30667 6.23276 7.32329 6.24849 7.34035 6.26294C7.36774 6.28601 7.39564 6.30979 7.42629 6.33032C7.44185 6.34072 7.45916 6.34921 7.47512 6.35864C7.47964 6.36133 7.48422 6.36384 7.48879 6.36645C7.53367 6.39201 7.58014 6.41373 7.62746 6.43188C7.66151 6.44487 7.69671 6.45381 7.73195 6.46313C7.75699 6.46978 7.78182 6.47696 7.80715 6.48169C7.84238 6.48826 7.8778 6.49241 7.9136 6.49536C7.94249 6.49772 7.97161 6.50028 8.00051 6.50024C8.02923 6.50022 8.05774 6.49774 8.08645 6.49536Z" fill="black" style="fill:black;fill-opacity:1;"/>
</svg>
