<svg width="14" height="14" viewBox="0 0 14 14" fill="none" xmlns="http://www.w3.org/2000/svg">
<path d="M0.292969 0.293457C0.683621 -0.0967252 1.31641 -0.096783 1.70703 0.293457L7.00391 5.58643L12.293 0.30127C12.6837 -0.0884329 13.3176 -0.0888152 13.708 0.30127C14.0983 0.691459 14.098 1.32496 13.708 1.71533L8.41895 6.99951L13.708 12.2847C14.098 12.675 14.0983 13.3085 13.708 13.6987C13.3175 14.0889 12.6837 14.0885 12.293 13.6987L7.00391 8.4126L1.70703 13.7065C1.31643 14.0969 0.683651 14.0967 0.292969 13.7065C-0.097643 13.3162 -0.0976799 12.6838 0.292969 12.2935L5.58984 6.99951L0.292969 1.70654C-0.0976435 1.31616 -0.0976801 0.68382 0.292969 0.293457Z" fill="black" style="fill:black;fill-opacity:1;"/>
</svg>
