<svg width="76" height="76" viewBox="0 0 76 76" fill="none" xmlns="http://www.w3.org/2000/svg">
<path d="M29.1498 27.716L24.415 27.6104L24.3936 28.384C16.7029 30.7562 10.8637 39.1565 10.582 49.2834C10.3003 59.4104 15.6657 68.0583 23.2145 70.7698L23.1931 71.5435L27.929 71.6491C37.8468 71.8689 46.1596 62.2137 46.4968 50.0816C46.834 37.9496 39.0686 27.9369 29.1508 27.7171L29.1498 27.716Z" fill="#FFB046" stroke="#141414" style="fill:#FFB046;fill:color(display-p3 1.0000 0.6902 0.2745);fill-opacity:1;stroke:#141414;stroke:color(display-p3 0.0784 0.0784 0.0784);stroke-opacity:1;" stroke-width="2" stroke-linecap="round" stroke-linejoin="round"/>
<path d="M29.1491 27.716L24.4143 27.6104L24.3929 28.384C16.7022 30.7562 10.863 39.1565 10.5813 49.2834C10.2996 59.4104 15.665 68.0583 23.2138 70.7698L23.1924 71.5435L27.9283 71.6491C37.8461 71.8689 46.1589 62.2137 46.4961 50.0816C46.8333 37.9496 39.0679 27.9369 29.1501 27.7171L29.1491 27.716Z" fill="#FFB046" style="fill:#FFB046;fill:color(display-p3 1.0000 0.6902 0.2745);fill-opacity:1;"/>
<path d="M29.1491 27.716L24.4143 27.6104L24.3929 28.384C16.7022 30.7562 10.863 39.1565 10.5813 49.2834C10.2996 59.4104 15.665 68.0583 23.2138 70.7698L23.1924 71.5435L27.9283 71.6491C37.8461 71.8689 46.1589 62.2137 46.4961 50.0816C46.8333 37.9496 39.0679 27.9369 29.1501 27.7171L29.1491 27.716Z" stroke="#141414" style="stroke:#141414;stroke:color(display-p3 0.0784 0.0784 0.0784);stroke-opacity:1;" stroke-width="2" stroke-linecap="round" stroke-linejoin="round"/>
<path d="M41.7527 50.2777C42.227 38.1505 34.5765 28.0051 24.6647 27.6174C14.7529 27.2297 6.33327 36.7465 5.85891 48.8737C5.38455 61.0009 13.0351 71.1463 22.9469 71.534C32.8587 71.9217 41.2783 62.4049 41.7527 50.2777Z" fill="#FFB046" stroke="#141414" style="fill:#FFB046;fill:color(display-p3 1.0000 0.6902 0.2745);fill-opacity:1;stroke:#141414;stroke:color(display-p3 0.0784 0.0784 0.0784);stroke-opacity:1;" stroke-width="2" stroke-linecap="round" stroke-linejoin="round"/>
<path d="M19.9994 60.6865C14.7696 55.4568 17.3845 53.7135 27.844 43.254M27.844 43.254C27.844 43.254 25.9264 48.3094 28.7156 51.0986M27.844 43.254C27.844 43.254 23.6376 46.0206 19.9768 42.3598" stroke="#141414" style="stroke:#141414;stroke:color(display-p3 0.0784 0.0784 0.0784);stroke-opacity:1;" stroke-width="2" stroke-linecap="round" stroke-linejoin="round"/>
<path d="M50.1881 11.797L54.9229 11.6914L54.9443 12.4651C62.6349 14.8373 68.4742 23.2376 68.7559 33.3645C69.0376 43.4914 63.6722 52.1393 56.1234 54.8509L56.1448 55.6245L51.4089 55.7302C41.4911 55.95 33.1783 46.2947 32.8411 34.1627C32.5039 22.0307 40.2693 12.0179 50.187 11.7981L50.1881 11.797Z" fill="#FFEB48" stroke="#141414" style="fill:#FFEB48;fill:color(display-p3 1.0000 0.9216 0.2824);fill-opacity:1;stroke:#141414;stroke:color(display-p3 0.0784 0.0784 0.0784);stroke-opacity:1;" stroke-width="2" stroke-linecap="round" stroke-linejoin="round"/>
<path d="M50.1888 11.797L54.9236 11.6914L54.945 12.4651C62.6357 14.8373 68.4749 23.2376 68.7566 33.3645C69.0383 43.4914 63.6729 52.1393 56.1241 54.8509L56.1455 55.6245L51.4096 55.7302C41.4918 55.95 33.179 46.2947 32.8418 34.1627C32.5046 22.0307 40.27 12.0179 50.1878 11.7981L50.1888 11.797Z" fill="#FFEB48" style="fill:#FFEB48;fill:color(display-p3 1.0000 0.9216 0.2824);fill-opacity:1;"/>
<path d="M50.1888 11.797L54.9236 11.6914L54.945 12.4651C62.6357 14.8373 68.4749 23.2376 68.7566 33.3645C69.0383 43.4914 63.6729 52.1393 56.1241 54.8509L56.1455 55.6245L51.4096 55.7302C41.4918 55.95 33.179 46.2947 32.8418 34.1627C32.5046 22.0307 40.27 12.0179 50.1878 11.7981L50.1888 11.797Z" fill="#FFEB48" stroke="#141414" style="fill:#FFEB48;fill:color(display-p3 1.0000 0.9216 0.2824);fill-opacity:1;stroke:#141414;stroke:color(display-p3 0.0784 0.0784 0.0784);stroke-opacity:1;" stroke-width="2" stroke-linecap="round" stroke-linejoin="round"/>
<path d="M37.5852 34.3627C37.1109 22.2354 44.7614 12.0901 54.6732 11.7024C64.585 11.3147 73.0046 20.8314 73.479 32.9587C73.9533 45.0859 66.3028 55.2313 56.391 55.619C46.4792 56.0067 38.0596 46.4899 37.5852 34.3627Z" fill="#FFEB48" stroke="#141414" style="fill:#FFEB48;fill:color(display-p3 1.0000 0.9216 0.2824);fill-opacity:1;stroke:#141414;stroke:color(display-p3 0.0784 0.0784 0.0784);stroke-opacity:1;" stroke-width="2" stroke-linecap="round" stroke-linejoin="round"/>
<path d="M58.3468 24.3408C63.5766 29.5706 60.9617 31.3138 50.5022 41.7733M50.5022 41.7733C50.5022 41.7733 52.4197 36.7179 49.6305 33.9287M50.5022 41.7733C50.5022 41.7733 54.7086 39.0068 58.3694 42.6676" stroke="#141414" style="stroke:#141414;stroke:color(display-p3 0.0784 0.0784 0.0784);stroke-opacity:1;" stroke-width="2" stroke-linecap="round" stroke-linejoin="round"/>
</svg>
