<svg width="81" height="76" viewBox="0 0 81 76" fill="none" xmlns="http://www.w3.org/2000/svg">
<path d="M61.8948 67.3043L57.0161 59.2543L75.2709 31.7402L79.4774 38.7425L61.8948 67.3065V67.3043Z" fill="#9DB4D9" stroke="#141414" style="fill:#9DB4D9;fill:color(display-p3 0.6157 0.7059 0.8510);fill-opacity:1;stroke:#141414;stroke:color(display-p3 0.0784 0.0784 0.0784);stroke-opacity:1;" stroke-width="2" stroke-linecap="round" stroke-linejoin="round"/>
<path d="M10.1884 59.8724C10.1884 59.8724 16.4495 56.3659 34.9812 64.0419C54.4768 72.1174 61.8963 67.3018 61.8963 67.3018L57.0176 59.2518C57.0176 59.2518 49.9977 63.7911 32.3094 55.8325C15.0544 48.0673 5.00745 51.3208 5.00745 51.3208L10.1905 59.8724H10.1884Z" fill="#59C1A4" stroke="#141414" style="fill:#59C1A4;fill:color(display-p3 0.3490 0.7569 0.6431);fill-opacity:1;stroke:#141414;stroke:color(display-p3 0.0784 0.0784 0.0784);stroke-opacity:1;" stroke-width="2" stroke-linecap="round" stroke-linejoin="round"/>
<path d="M75.2724 31.7385L57.0176 59.2526C57.0176 59.2526 49.9977 63.7919 32.3093 55.8333C15.0522 48.0681 5.00745 51.3216 5.00745 51.3216L23.2601 23.8075C23.2601 23.8075 36.3805 22.7237 51.1729 29.131C62.9193 34.2164 75.2703 31.7407 75.2703 31.7407L75.2724 31.7385Z" fill="#C0E0FF" stroke="#141414" style="fill:#C0E0FF;fill:color(display-p3 0.7529 0.8784 1.0000);fill-opacity:1;stroke:#141414;stroke:color(display-p3 0.0784 0.0784 0.0784);stroke-opacity:1;" stroke-width="2" stroke-linecap="round" stroke-linejoin="round"/>
<path d="M20.868 48.3053C13.4084 46.199 9.18675 46.6872 7.96729 47.3345L10.2779 43.4512L20.868 44.6162C29.9177 47.917 54.0236 55.5949 51.2525 55.5002C39.8922 55.1119 30.4954 51.0237 20.868 48.3053Z" fill="#141414" style="fill:#141414;fill:color(display-p3 0.0784 0.0784 0.0784);fill-opacity:1;"/>
<path d="M77.1258 35.7949L65.3181 54.7724" stroke="#141414" style="stroke:#141414;stroke:color(display-p3 0.0784 0.0784 0.0784);stroke-opacity:1;" stroke-width="2" stroke-miterlimit="10" stroke-linecap="round" stroke-linejoin="round"/>
<path d="M10.1884 59.8724C10.1884 59.8724 16.4495 56.3659 34.9812 64.0419C54.4768 72.1174 61.8963 67.3018 61.8963 67.3018L57.0176 59.2518C57.0176 59.2518 49.9977 63.7911 32.3094 55.8325C15.0544 48.0673 5.00745 51.3208 5.00745 51.3208L10.1905 59.8724H10.1884Z" fill="#9DB4D9" stroke="#141414" style="fill:#9DB4D9;fill:color(display-p3 0.6157 0.7059 0.8510);fill-opacity:1;stroke:#141414;stroke:color(display-p3 0.0784 0.0784 0.0784);stroke-opacity:1;" stroke-width="2" stroke-linecap="round" stroke-linejoin="round"/>
<path d="M20.6116 56.0625C24.3488 56.6384 29.3352 57.956 35.8267 60.6443C39.1475 62.0192 42.1174 63.0202 44.7597 63.7364" stroke="#141414" style="stroke:#141414;stroke:color(display-p3 0.0784 0.0784 0.0784);stroke-opacity:1;" stroke-width="2" stroke-linecap="round" stroke-linejoin="round"/>
<path d="M73.5437 25.0046L55.5467 54.5121C55.5467 54.5121 48.0279 57.4469 30.3396 49.4883C27.9975 48.4342 25.7505 47.565 23.6177 46.8489C18.3036 45.0637 13.6892 44.2286 10.0386 43.8716C4.34827 43.3169 1 43.9289 1 43.9289L21.2503 18.1744C21.2503 18.1744 24.5732 18.1277 29.7139 18.8502C33.4427 19.373 38.129 20.2996 43.2 21.9423C45.3159 22.6245 47.4974 23.4341 49.7042 24.3905C61.4506 29.4759 73.5437 25.0046 73.5437 25.0046Z" fill="white" style="fill:white;fill-opacity:1;"/>
<path d="M73.5458 25.0046L55.5467 54.5121C55.5467 54.5121 48.0279 57.449 30.3396 49.4883C13.0825 41.7252 1 43.931 1 43.931L21.2503 18.1744C21.2503 18.1744 34.9118 17.9832 49.7042 24.3904C61.4506 29.4759 73.5437 25.0046 73.5437 25.0046H73.5458ZM49.7063 24.3904C34.9118 17.9832 21.2503 18.1744 21.2503 18.1744L1 43.9289C1 43.9289 13.0825 41.723 30.3396 49.4883C48.0279 57.4469 55.5467 54.5121 55.5467 54.5121L73.5437 25.0046C73.5437 25.0046 61.4506 29.4759 49.7042 24.3904H49.7063Z" fill="#6CE8C4" style="fill:#6CE8C4;fill:color(display-p3 0.4235 0.9098 0.7686);fill-opacity:1;"/>
<path d="M55.5467 54.5121L73.5458 25.0046H73.5437M55.5467 54.5121C55.5467 54.5121 48.0279 57.449 30.3396 49.4883M55.5467 54.5121C55.5467 54.5121 48.0279 57.4469 30.3396 49.4883M55.5467 54.5121L73.5437 25.0046M30.3396 49.4883C13.0825 41.7252 1 43.931 1 43.931L21.2503 18.1744M30.3396 49.4883C13.0825 41.723 1 43.9289 1 43.9289L21.2503 18.1744M21.2503 18.1744C21.2503 18.1744 34.9118 17.9832 49.7042 24.3904M21.2503 18.1744C21.2503 18.1744 34.9118 17.9832 49.7063 24.3904H49.7042M49.7042 24.3904C61.4506 29.4759 73.5437 25.0046 73.5437 25.0046" stroke="#141414" style="stroke:#141414;stroke:color(display-p3 0.0784 0.0784 0.0784);stroke-opacity:1;" stroke-width="2" stroke-linecap="round" stroke-linejoin="round"/>
<g style="mix-blend-mode:multiply">
<path d="M1 43.9248L8.87903 34.0332L14.0138 34.7186L6.81075 43.6068C2.97028 43.6068 1 43.9248 1 43.9248Z" fill="#4898D9" style="fill:#4898D9;fill:color(display-p3 0.2824 0.5961 0.8510);fill-opacity:1;"/>
<path d="M15.4077 25.4318L21.2798 18L26.5515 18.4547L20.793 26.0383L15.4077 25.4318Z" fill="#4898D9" style="fill:#4898D9;fill:color(display-p3 0.2824 0.5961 0.8510);fill-opacity:1;"/>
</g>
<path d="M73.8834 25.1017L56.1038 54.6838C56.1038 54.6838 54.7192 55.2236 51.7408 55.2129C47.8985 54.6838 45.1345 55.2129 34.9361 51.482C32.594 50.4281 23.6704 46.6792 19.2239 45.4424L37.91 20.543C41.0476 20.543 50.6907 25.1017 54.3501 25.6457C62.0645 28.0193 65.18 26.1813 69.7805 26.1813C72.3234 25.6777 73.8834 25.1017 73.8834 25.1017Z" fill="#AFE6F4" style="fill:#AFE6F4;fill:color(display-p3 0.6863 0.9020 0.9569);fill-opacity:1;"/>
<path d="M73.0667 25.4629L55.0698 54.9704C55.0698 54.9704 53.6853 55.5101 50.7069 55.4995L68.9638 26.5425C71.5067 26.0388 73.0667 25.4629 73.0667 25.4629Z" fill="#4898D9" style="fill:#4898D9;fill:color(display-p3 0.2824 0.5961 0.8510);fill-opacity:1;"/>
<path d="M39.2254 47.4344C39.2254 47.4344 41.1323 41.5017 47.0651 43.6206" stroke="#141414" style="stroke:#141414;stroke:color(display-p3 0.0784 0.0784 0.0784);stroke-opacity:1;" stroke-width="2" stroke-linecap="round" stroke-linejoin="round"/>
<path d="M48.3372 51.0374C48.3372 51.0374 53.0415 45.7995 46.8541 43.6215" stroke="#141414" style="stroke:#141414;stroke:color(display-p3 0.0784 0.0784 0.0784);stroke-opacity:1;" stroke-width="2" stroke-linecap="round" stroke-linejoin="round"/>
<path d="M47.9689 41.951L43.9172 48.1387" stroke="#141414" style="stroke:#141414;stroke:color(display-p3 0.0784 0.0784 0.0784);stroke-opacity:1;" stroke-width="2" stroke-linecap="round" stroke-linejoin="round"/>
<path d="M73.5449 25.0027L55.548 54.5101C55.548 54.5101 48.0292 57.4449 30.3408 49.4863C27.9987 48.4323 25.7518 47.5631 23.6189 46.8469C18.3048 45.0618 13.6904 44.2266 10.0399 43.8696C4.34949 43.3149 1.00122 43.927 1.00122 43.927L21.2515 18.1725C21.2515 18.1725 24.5744 18.1257 29.7151 18.8483C33.4439 19.3711 38.1302 20.2976 43.2012 21.9403C45.3171 22.6225 47.4986 23.4322 49.7054 24.3885C61.4518 29.4739 73.5449 25.0027 73.5449 25.0027Z" stroke="#141414" style="stroke:#141414;stroke:color(display-p3 0.0784 0.0784 0.0784);stroke-opacity:1;" stroke-width="2" stroke-linecap="round" stroke-linejoin="round"/>
</svg>
