<svg width="84" height="76" viewBox="0 0 84 76" fill="none" xmlns="http://www.w3.org/2000/svg">
<path d="M47.2027 20.2602C45.3214 -1.39168 65.2243 2.98612 65.7973 14.9749C65.8784 16.6531 66.4717 19.1429 66.4717 20.5156" stroke="black" style="stroke:black;stroke-opacity:1;" stroke-width="2" stroke-linecap="round" stroke-linejoin="round"/>
<path d="M58.3273 20.2218C60.1809 -1.37562 40.5701 2.99118 40.0055 14.9498C39.9405 16.6238 39.3409 19.1074 39.3409 20.4766" stroke="black" style="stroke:black;stroke-opacity:1;" stroke-width="2" stroke-linecap="round" stroke-linejoin="round"/>
<path d="M76.4269 20.5H72.4269H30.4269L33.195 69.5006L68.4269 70L82.4269 68.5L76.4269 20.5Z" fill="#AFE6F4" stroke="black" style="fill:#AFE6F4;fill:color(display-p3 0.6863 0.9020 0.9569);fill-opacity:1;stroke:black;stroke-opacity:1;" stroke-width="2" stroke-linecap="round" stroke-linejoin="round"/>
<path d="M72.4194 20.4766H28.9863L26.0146 69.572L68.1092 70.0016L72.4194 20.4766Z" fill="#AFE6F4" stroke="black" style="fill:#AFE6F4;fill:color(display-p3 0.6863 0.9020 0.9569);fill-opacity:1;stroke:black;stroke-opacity:1;" stroke-width="2" stroke-linecap="round" stroke-linejoin="round"/>
<path d="M81.9269 68L76.2096 62.7225C75.7855 62.3311 75.1191 62.3788 74.7552 62.8267L68.9269 70" stroke="black" style="stroke:black;stroke-opacity:1;" stroke-width="2"/>
<path d="M26.7745 70L40.7745 60L37.9745 60.5385L26.7745 62.6923V70Z" fill="black" style="fill:black;fill-opacity:1;"/>
<rect width="34.9255" height="34.9255" rx="3" transform="matrix(-0.976703 0.214595 0.214595 0.976703 34.5387 25)" fill="white" stroke="black" style="fill:white;fill-opacity:1;stroke:black;stroke-opacity:1;" stroke-width="2" stroke-linejoin="round"/>
<path d="M17.0412 33.3177C17.0423 33.3175 17.0429 33.319 17.0419 33.3196C16.491 33.6574 16.3687 34.1339 16.51 34.7488C16.9105 36.4874 17.2828 38.2383 17.667 39.9866C17.8351 40.7518 18.3163 41.0596 19.0818 40.8914C19.1782 40.8702 19.2738 40.8492 19.3705 40.8279C19.6826 40.7594 19.9912 40.9568 20.0598 41.2689C20.1852 41.8399 20.3048 42.4122 20.4361 42.9819C20.5721 43.5444 21.1009 43.8725 21.6499 43.7581C22.1975 43.6378 22.5591 43.1202 22.4408 42.5538C22.2094 41.4445 21.9663 40.3378 21.71 39.2279C21.5826 38.6758 21.0694 38.3628 20.512 38.4667C20.4772 38.4731 20.4425 38.4797 20.408 38.4865C19.9034 38.5859 19.4097 38.2821 19.2993 37.7798C19.189 37.2775 19.5097 36.7944 20.0096 36.6735C20.0459 36.6647 20.0821 36.6557 20.1182 36.6465C20.8995 36.4378 21.1693 35.5023 20.6122 34.9335C20.3422 34.6597 20.0141 34.5713 19.6418 34.6469C19.4864 34.6811 19.331 34.7152 19.1708 34.7504C18.8813 34.814 18.5751 34.6348 18.5316 34.3417C18.4609 33.8457 18.2383 33.5016 17.8373 33.3324C17.5874 33.2269 17.3062 33.2595 17.0412 33.3177Z" fill="black" style="fill:black;fill-opacity:1;"/>
<path d="M33.708 41.842C33.7097 41.8417 33.7105 41.8397 33.7096 41.8382C33.3716 41.2856 32.8907 41.1454 32.2728 41.3058C31.7009 41.4561 31.1128 41.5607 30.537 41.6934C29.9011 41.8331 29.5408 42.3565 29.676 42.9439C29.8041 43.5267 30.348 43.8391 30.9911 43.704C31.5277 43.5861 32.0421 43.9292 32.1744 44.4624C32.1792 44.4819 32.1841 44.5013 32.1891 44.5207C32.2973 44.9288 32.5588 45.1923 32.9745 45.2861C33.3817 45.3694 33.739 45.2538 33.9798 44.9171C34.0085 44.8774 34.033 44.8346 34.0546 44.7896C34.2129 44.4608 34.1955 44.0727 34.1172 43.7162L33.7061 41.845C33.7058 41.8437 33.7066 41.8423 33.708 41.842Z" fill="black" style="fill:black;fill-opacity:1;"/>
<path d="M28.2672 44.3179C27.9658 44.3729 27.6722 44.1944 27.6064 43.8951C27.5795 43.7726 27.553 43.652 27.5263 43.5304C27.3814 42.8711 26.8637 42.5097 26.269 42.6403C25.6861 42.7684 25.3715 43.3312 25.515 43.9846C25.5586 44.183 25.6028 44.3844 25.6495 44.5967C25.6831 44.7496 25.5864 44.9007 25.4336 44.9343C24.3619 45.1698 23.2843 45.4065 22.2126 45.642C21.4824 45.8024 21.17 46.2907 21.3257 47.0278C21.4473 47.5812 21.5689 48.1345 21.6905 48.6878C21.8301 49.3236 22.3642 49.6752 22.9458 49.5413C23.5216 49.4086 23.8355 48.8706 23.7056 48.2513C23.6685 48.0826 23.6321 47.9166 23.5931 47.7392C23.5595 47.5864 23.6562 47.4352 23.809 47.4016C25.4107 47.0497 27.0124 46.6978 28.6199 46.3446C29.356 46.1829 29.6991 45.4411 29.3397 44.8166C29.1281 44.4435 28.7081 44.2457 28.2672 44.3179Z" fill="black" style="fill:black;fill-opacity:1;"/>
<path d="M13.7627 49.6054C13.7912 49.7349 13.8132 49.835 13.8338 49.9292C14.1003 51.1418 14.4936 51.5552 15.2179 51.3961C15.9304 51.2395 16.1102 50.6817 15.8451 49.4749C15.6809 48.7273 15.5166 47.9797 15.3523 47.2321C15.3415 47.1828 15.387 47.1381 15.4363 47.1273C15.4934 47.1147 15.5522 47.1018 15.611 47.0889C16.4236 46.9104 17.2434 46.7364 18.0547 46.552C18.5552 46.442 18.8642 46.0224 18.8655 45.5223C18.8627 45.0601 18.5237 44.6409 18.0596 44.5516C17.8982 44.5192 17.7138 44.5227 17.5489 44.5589C16.3463 44.8169 15.1451 45.0809 13.951 45.3494C13.2974 45.493 12.9771 46.0015 13.116 46.6621C13.2303 47.1823 12.8985 47.6841 12.3804 47.8073C12.3332 47.8186 12.2863 47.8301 12.2395 47.842C11.4582 48.0507 11.1956 48.9908 11.7527 49.5595C12.0227 49.8334 12.3508 49.9218 12.7218 49.8403C13.0556 49.7669 13.3895 49.6936 13.7581 49.6126C13.7614 49.6119 13.7634 49.6086 13.7627 49.6054Z" fill="black" style="fill:black;fill-opacity:1;"/>
<path d="M23.0248 54.7982C23.027 54.7997 23.0264 54.8031 23.0238 54.8037C22.685 54.8781 22.3751 54.9462 22.0652 55.0143C21.4436 55.1632 21.1161 55.6671 21.2401 56.2878C21.3579 56.8242 21.0149 57.3385 20.4819 57.4707C20.4622 57.4756 20.4426 57.4805 20.423 57.4855C19.7346 57.6676 19.4248 58.4206 19.7849 59.0203C19.9998 59.3804 20.4152 59.5853 20.8464 59.4967C21.5438 59.3558 22.2458 59.2078 22.9368 59.0374C23.4818 58.9053 23.795 58.3922 23.6898 57.8291C23.6819 57.7858 23.6736 57.7425 23.6649 57.6991C23.567 57.2094 23.8628 56.7298 24.3506 56.6226C25.0808 56.4621 25.3919 55.968 25.2303 55.2322C25.0996 54.6376 24.969 54.0431 24.8371 53.4426C24.6961 52.801 24.1843 52.4383 23.6001 52.5605C23.0041 52.6853 22.6856 53.2304 22.8232 53.8851C22.8878 54.1791 22.9511 54.4672 23.0234 54.7963C23.0236 54.7971 23.0241 54.7978 23.0248 54.7982Z" fill="black" style="fill:black;fill-opacity:1;"/>
<path d="M14.4168 58.8114C14.4145 58.8099 14.4129 58.8076 14.4123 58.8049C14.3364 58.4593 14.2681 58.1485 14.2011 57.8437C14.0574 57.2458 13.5423 56.8962 12.9758 57.0145C12.3987 57.1413 12.0658 57.6772 12.1945 58.2907C12.2107 58.3648 12.2271 58.4391 12.2436 58.5142C12.3329 58.9207 12.0757 59.3226 11.6692 59.412C11.0405 59.5563 10.6815 60.0856 10.8154 60.6671C10.948 61.2427 11.4874 61.5623 12.1116 61.4252C13.6779 61.081 15.2501 60.7356 16.8164 60.3915C17.4347 60.2556 17.7878 59.7276 17.6623 59.1566C17.5356 58.5797 16.9995 58.247 16.3813 58.3828C15.7408 58.5236 15.0944 58.6656 14.4246 58.8127C14.4219 58.8133 14.4191 58.8128 14.4168 58.8114Z" fill="black" style="fill:black;fill-opacity:1;"/>
<path d="M11.2717 53.1696C11.2701 53.1677 11.269 53.1654 11.2685 53.163C11.1266 52.5168 11.004 51.9032 10.858 51.2947C10.6645 50.498 9.70846 50.2206 9.13619 50.7906C8.87727 51.045 8.77318 51.3579 8.85078 51.7111C9.055 52.6967 9.26969 53.6739 9.49746 54.6544C9.62234 55.1946 10.1368 55.5135 10.6812 55.4063C11.6495 55.2059 12.6165 54.9996 13.5724 54.771C14.1174 54.639 14.4372 54.0997 14.3195 53.564C14.1992 53.0166 13.6829 52.6611 13.115 52.7735C12.5148 52.8931 11.9139 53.0372 11.2873 53.175C11.2815 53.1763 11.2754 53.1742 11.2717 53.1696Z" fill="black" style="fill:black;fill-opacity:1;"/>
<path d="M20.1282 51.2157C20.1286 51.215 20.1288 51.2142 20.1286 51.2134C19.9852 50.5605 19.8625 49.9461 19.7163 49.3368C19.546 48.6461 18.7974 48.3293 18.1962 48.6835C17.8348 48.8925 17.618 49.3104 17.7052 49.7355C17.912 50.7329 18.126 51.7349 18.3622 52.7259C18.4865 53.2354 18.9938 53.5498 19.51 53.4549C20.0497 53.3548 20.5856 53.2371 21.1176 53.1017C21.6613 52.9637 21.9752 52.4257 21.8575 51.8901C21.7398 51.3544 21.2319 51.0093 20.6778 51.1002C20.5065 51.1257 20.3344 51.1754 20.1314 51.2203C20.1288 51.2208 20.1268 51.218 20.1282 51.2157Z" fill="black" style="fill:black;fill-opacity:1;"/>
<path d="M17.5168 57.1418C17.5176 57.1416 17.5185 57.1413 17.5192 57.1408C17.7658 57.0005 18.0435 56.8901 18.2489 56.7032C18.5628 56.4183 18.6059 55.9398 18.4119 55.5628C18.2056 55.1577 17.7936 54.9397 17.3455 55.0073C17.1427 55.0395 16.9425 55.0835 16.7389 55.1406C16.1847 55.287 15.859 55.8275 15.9839 56.3678C16.1075 56.9022 16.62 57.2401 17.1741 57.1492C17.2605 57.1302 17.3469 57.1112 17.4333 57.0922C17.4575 57.0869 17.4811 57.0993 17.4944 57.1202C17.4988 57.1272 17.5036 57.1337 17.5089 57.1394C17.5109 57.1416 17.5139 57.1424 17.5168 57.1418Z" fill="black" style="fill:black;fill-opacity:1;"/>
<path d="M9.1797 48.4994C9.73322 48.3778 10.0942 47.8295 9.97264 47.2762C9.85107 46.7229 9.29677 46.3633 8.73867 46.4921C8.19693 46.6111 7.84181 47.1581 7.95492 47.701C8.0706 48.2556 8.61901 48.6165 9.17381 48.5007L9.1797 48.4994Z" fill="black" style="fill:black;fill-opacity:1;"/>
<path d="M24.8228 31.5472C24.8201 31.5437 24.8153 31.5426 24.8113 31.5446C24.3146 31.7864 23.8498 32.0654 23.4944 32.525C22.8994 33.2947 22.6519 34.1662 22.8362 35.1389C23.0412 36.2392 23.2704 37.3402 23.5214 38.4298C23.8929 40.0402 25.4431 41.0727 27.0005 40.7472C28.0542 40.5266 29.1087 40.2807 30.1523 40.012C31.5347 39.6579 32.4905 38.2994 32.4331 36.8051C32.4312 36.6862 32.4319 36.5669 32.4077 36.451L31.6829 32.9692C31.662 32.8689 31.6188 32.776 31.5752 32.6839C31.2603 31.8678 30.7064 31.2968 29.9385 30.946C29.6462 30.8129 29.3423 30.7492 29.033 30.7209C28.6629 30.6871 28.2898 30.7439 27.9252 30.829L24.8323 31.5505C24.8287 31.5514 24.825 31.5501 24.8228 31.5472ZM28.1532 38.3176C28.1518 38.32 28.1495 38.3217 28.1468 38.3223C27.6814 38.4309 27.2104 38.5408 26.745 38.6493C26.0882 38.8025 25.5914 38.4768 25.4486 37.791C25.2445 36.8103 25.0416 35.8357 24.8374 34.855C24.6959 34.1752 25.016 33.6526 25.6729 33.4993C26.6121 33.2802 27.5455 33.0625 28.4847 32.8434C29.1243 32.6942 29.6223 33.0259 29.7659 33.6863C29.9713 34.673 30.1767 35.6597 30.3821 36.6464C30.5211 37.3142 30.1997 37.8308 29.5614 37.986C29.0961 38.0945 28.625 38.2044 28.1596 38.313C28.157 38.3136 28.1547 38.3153 28.1532 38.3176Z" fill="black" style="fill:black;fill-opacity:1;"/>
<path d="M8.09053 35.2089C8.09085 35.2105 8.09007 35.2121 8.08863 35.2128C7.60174 35.4524 7.13399 35.7257 6.78659 36.172C6.18005 36.9443 5.92927 37.8293 6.10913 38.8093C6.31404 39.9097 6.54325 41.0107 6.79426 42.1003C7.16326 43.6987 8.70898 44.7386 10.2537 44.4098C11.319 44.1865 12.3792 43.9392 13.4344 43.6678C14.9654 43.2728 15.9562 41.6474 15.6564 40.033C15.4565 38.9566 15.2278 37.8871 14.9863 36.8141C14.6508 35.29 13.3684 34.2959 11.8613 34.3699C11.7781 34.3767 11.6958 34.3643 11.6143 34.3833L8.09317 35.2048C8.09133 35.2052 8.09014 35.207 8.09053 35.2089ZM13.3375 38.8201C13.4415 39.3195 13.5442 39.8128 13.6482 40.3122C13.7884 40.986 13.4683 41.5086 12.8357 41.6625C11.8849 41.8843 10.9297 42.1135 9.97768 42.3292C9.3669 42.4717 8.86761 42.134 8.72908 41.4976C8.51414 40.4942 8.30497 39.4894 8.10281 38.4893C7.97129 37.8576 8.303 37.3323 8.91253 37.1838C9.86202 36.956 10.8198 36.7389 11.7705 36.5171C12.3928 36.3719 12.8921 36.7097 13.0332 37.3581C13.1346 37.8454 13.2373 38.3388 13.3388 38.8261L13.3375 38.8201Z" fill="black" style="fill:black;fill-opacity:1;"/>
<path d="M35.3259 49.5292C35.3244 49.5295 35.3228 49.5288 35.3222 49.5273C35.1002 49.0123 34.8371 48.5322 34.4122 48.1715C33.6769 47.5419 32.8319 47.2848 31.8935 47.4785C30.8398 47.699 29.7854 47.945 28.7417 48.2137C27.2108 48.6087 26.2129 50.2294 26.5128 51.8438C26.7202 52.9562 26.9506 54.0632 27.2042 55.1648C27.5731 56.7631 29.1221 57.7896 30.668 57.4668C31.6987 57.2516 32.723 57.0063 33.7507 56.7477C35.2047 56.3895 36.1597 55.0565 36.1058 53.4919C36.097 53.3892 36.1112 53.2853 36.0902 53.1847L35.3297 49.5316C35.3293 49.5299 35.3276 49.5288 35.3259 49.5292ZM33.7447 51.8726C33.8487 52.3719 33.9514 52.8653 34.0553 53.3646C34.1944 54.0324 33.8755 54.5611 33.2416 54.7089C32.2967 54.9294 31.3517 55.1498 30.4068 55.3702C29.7672 55.5194 29.2692 55.1877 29.1301 54.5199C28.9247 53.5332 28.7193 52.5466 28.5139 51.5599C28.3774 50.9041 28.6976 50.3815 29.3186 50.2303C30.2681 50.0025 31.2258 49.7854 32.1765 49.5636C32.7988 49.4185 33.2981 49.7562 33.4391 50.4046C33.5406 50.8919 33.6433 51.3853 33.7447 51.8726Z" fill="black" style="fill:black;fill-opacity:1;"/>
<path d="M26.6329 35.9863C26.6313 35.9866 26.6303 35.9882 26.6306 35.9898C26.7496 36.5537 27.3061 36.908 27.8443 36.7698C28.3834 36.6314 28.7224 36.054 28.5931 35.4911C28.4663 34.9403 27.9287 34.5926 27.3986 34.7162C26.8579 34.8424 26.5122 35.4134 26.6351 35.9827C26.6355 35.9843 26.6345 35.9859 26.6329 35.9863Z" fill="black" style="fill:black;fill-opacity:1;"/>
<path d="M9.90697 39.6467C10.0247 40.2123 10.5706 40.5707 11.1122 40.4443C11.6538 40.318 11.9986 39.7392 11.8751 39.175C11.7541 38.6228 11.221 38.2677 10.6839 38.3867C10.1422 38.5131 9.78923 39.0812 9.90697 39.6467Z" fill="black" style="fill:black;fill-opacity:1;"/>
<path d="M31.4958 53.4932C32.0374 53.3669 32.3834 52.7941 32.2599 52.2299C32.1421 51.6644 31.5905 51.3073 31.0514 51.4457C30.5225 51.5754 30.1811 52.1408 30.2963 52.6943C30.414 53.2598 30.9554 53.6256 31.4958 53.4932Z" fill="black" style="fill:black;fill-opacity:1;"/>
</svg>
