<svg width="24" height="24" viewBox="0 0 24 24" fill="none" xmlns="http://www.w3.org/2000/svg">
<path d="M5.29321 5.29382C5.68386 4.90352 6.31662 4.90354 6.70728 5.29382L12.0042 10.5868L17.2932 5.30164C17.6839 4.91182 18.3178 4.91151 18.7083 5.30164C19.0984 5.69187 19.0983 6.32538 18.7083 6.7157L13.4192 11.9999L18.7083 17.285C19.0982 17.6755 19.0987 18.309 18.7083 18.6991C18.3178 19.0892 17.6839 19.0887 17.2932 18.6991L12.0042 13.413L6.70728 18.7069C6.31671 19.0971 5.68389 19.097 5.29321 18.7069C4.90262 18.3165 4.90261 17.6842 5.29321 17.2938L10.5901 11.9999L5.29321 6.70691C4.90262 6.31654 4.90261 5.68419 5.29321 5.29382Z" fill="white" style="fill:white;fill-opacity:1;"/>
</svg>
