<svg width="236" height="79" viewBox="0 0 236 79" fill="none" xmlns="http://www.w3.org/2000/svg">
<path d="M53.0123 1.41748H25.0952C11.7878 1.41748 1 12.2053 1 25.5127V53.4297C1 66.7372 11.7878 77.525 25.0952 77.525H53.0123C66.3197 77.525 77.1075 66.7372 77.1075 53.4297V25.5127C77.1075 12.2053 66.3197 1.41748 53.0123 1.41748Z" fill="#00BCA1" stroke="black" style="fill:#00BCA1;fill:color(display-p3 0.0000 0.7373 0.6314);fill-opacity:1;stroke:black;stroke-opacity:1;" stroke-width="2" stroke-miterlimit="10"/>
<path d="M58.1707 1.00024H30.2537C16.9462 1.00024 6.15845 11.788 6.15845 25.0955V53.0125C6.15845 66.3199 16.9462 77.1077 30.2537 77.1077H58.1707C71.4781 77.1077 82.2659 66.3199 82.2659 53.0125V25.0955C82.2659 11.788 71.4781 1.00024 58.1707 1.00024Z" fill="#07EAC1" stroke="black" style="fill:#07EAC1;fill:color(display-p3 0.0275 0.9176 0.7569);fill-opacity:1;stroke:black;stroke-opacity:1;" stroke-width="2" stroke-miterlimit="10"/>
<path d="M32.5075 38.155C36.1206 38.155 38.5454 40.4794 38.5454 44.767V54.438H34.302V45.6301C34.302 43.3498 33.3104 42.1896 31.4316 42.1896C29.047 42.1896 27.9269 43.8797 27.9269 46.8344V54.438H23.7037V45.6301C23.7037 43.3498 22.692 42.1896 20.7891 42.1896C18.4245 42.1896 17.3487 43.8797 17.3487 46.8344V54.438H13.1254V38.5364H17.2242V40.9853C18.1756 39.2951 19.7373 38.155 22.2062 38.155C24.4664 38.155 26.2408 39.1065 27.1481 41.1097C28.1638 39.2952 30.0185 38.155 32.5115 38.155H32.5075ZM53.9652 43.3097C53.9652 36.6576 58.6542 32.1814 64.6318 32.1814C70.6094 32.1814 75.2984 36.6576 75.2984 43.3097C75.2984 49.9618 70.6094 54.438 64.6318 54.438C58.6542 54.438 53.9652 49.9417 53.9652 43.3097ZM70.8182 43.3097C70.8182 39.2108 68.2007 36.6375 64.6318 36.6375C61.0629 36.6375 58.4454 39.2149 58.4454 43.3097C58.4454 47.4045 61.0227 49.9818 64.6318 49.9818C68.2409 49.9818 70.8182 47.4045 70.8182 43.3097ZM33.9246 31.3544C33.8203 32.5788 34.7276 33.6547 35.952 33.7832L39.5851 34.1204C40.8096 34.2248 41.9096 33.3376 42.0139 32.1132C42.1183 30.8887 41.211 29.8128 39.9866 29.6844L36.3534 29.3471C35.129 29.2428 34.029 30.13 33.9246 31.3544ZM39.2439 19.9933C38.2282 20.6918 37.9753 22.0849 38.6738 23.0965L41.484 27.1311C42.1825 28.1468 43.5756 28.3997 44.5872 27.7012C45.5989 27.0027 45.8558 25.6096 45.1573 24.598L42.3471 20.5633C41.6486 19.5276 40.2556 19.2948 39.2439 19.9933ZM52.2309 17.8174C51.0466 17.5003 49.8021 18.1988 49.485 19.3791L48.1963 24.1082C47.8792 25.2925 48.5777 26.5169 49.758 26.834C50.9623 27.1512 52.1867 26.4527 52.5039 25.2724L53.7926 20.5433C54.1097 19.359 53.4112 18.1346 52.2309 17.8174ZM61.0388 26.9183C60.5089 25.7983 59.2001 25.3125 58.06 25.8425L54.744 27.364C53.624 27.8698 53.1382 29.2026 53.644 30.3187C54.1499 31.4387 55.4827 31.9245 56.6228 31.3946L59.9388 29.873C61.0789 29.3431 61.5647 28.0344 61.0388 26.9183ZM48.4733 32.1573C47.839 32.1573 47.2489 32.3701 46.7631 32.7715L40.0669 38.3678C39.1154 39.1506 38.991 40.5637 39.7939 41.5152C40.5968 42.4666 41.9898 42.571 42.9413 41.7882L46.6587 38.6849V54.438H51.1349V34.8189C51.1349 33.3617 49.9306 32.1573 48.4733 32.1573Z" fill="#02205F" style="fill:#02205F;fill:color(display-p3 0.0078 0.1255 0.3725);fill-opacity:1;"/>
<path d="M204.955 1.41748H177.038C163.731 1.41748 152.943 12.2053 152.943 25.5127V53.4297C152.943 66.7372 163.731 77.525 177.038 77.525H204.955C218.263 77.525 229.05 66.7372 229.05 53.4297V25.5127C229.05 12.2053 218.263 1.41748 204.955 1.41748Z" fill="#F3BA2F" stroke="black" style="fill:#F3BA2F;fill:color(display-p3 0.9529 0.7294 0.1843);fill-opacity:1;stroke:black;stroke-opacity:1;" stroke-width="2" stroke-miterlimit="10"/>
<path d="M210.114 1H182.197C168.889 1 158.102 11.7878 158.102 25.0952V53.0123C158.102 66.3197 168.889 77.1075 182.197 77.1075H210.114C223.421 77.1075 234.209 66.3197 234.209 53.0123V25.0952C234.209 11.7878 223.421 1 210.114 1Z" fill="#F3BA2F" stroke="black" style="fill:#F3BA2F;fill:color(display-p3 0.9529 0.7294 0.1843);fill-opacity:1;stroke:black;stroke-opacity:1;" stroke-width="2" stroke-miterlimit="10"/>
<path d="M196.124 64.4894H195.992L180.457 48.88L186.172 43.094L196.025 52.9619L205.887 43.0973L211.659 48.8315L196.124 64.4894Z" fill="white" style="fill:white;fill-opacity:1;"/>
<path d="M170.864 39.3165V38.7866L176.386 33.2898L182.101 39.0758L176.386 44.814L170.864 39.3165Z" fill="white" style="fill:white;fill-opacity:1;"/>
<path d="M196.034 13.6187L211.659 29.2235L205.935 35.0061L196.025 25.1415L186.172 35.0094L180.457 29.2712L196.034 13.6187Z" fill="white" style="fill:white;fill-opacity:1;"/>
<path d="M196.035 33.2243L190.245 39.0735L196.083 44.8739L201.874 39.0247L196.035 33.2243Z" fill="white" style="fill:white;fill-opacity:1;"/>
<path d="M215.666 33.291L221.447 39.0279L215.723 44.8099L209.95 39.0757L215.666 33.291Z" fill="white" style="fill:white;fill-opacity:1;"/>
<line x1="130.503" y1="27.8538" x2="105.987" y2="52.3698" stroke="white" style="stroke:white;stroke-opacity:1;" stroke-width="1.80829" stroke-linecap="round"/>
<line x1="129.222" y1="52.3696" x2="104.706" y2="27.8537" stroke="white" style="stroke:white;stroke-opacity:1;" stroke-width="1.80829" stroke-linecap="round"/>
</svg>
