<svg width="1432" height="760" viewBox="0 0 1432 760" fill="none" xmlns="http://www.w3.org/2000/svg">
<g clip-path="url(#clip0_13010_9971)">
<path d="M876.409 633.122C881.668 628.151 885.276 622.613 886.508 618.235C887.283 615.479 887.105 613.173 885.81 611.744L882.989 608.64L851.992 637.99L854.812 641.094C858.179 644.79 867.859 641.223 876.421 633.109L876.409 633.122Z" fill="#FFE648" style="fill:#FFE648;fill:color(display-p3 1.0000 0.9020 0.2824);fill-opacity:1;"/>
<path d="M876.409 633.122C881.668 628.151 885.276 622.613 886.508 618.235C887.283 615.479 887.105 613.173 885.81 611.744L882.989 608.64L851.992 637.99L854.812 641.094C858.179 644.79 867.859 641.223 876.421 633.109L876.409 633.122Z" stroke="black" style="stroke:black;stroke-opacity:1;" stroke-width="2" stroke-linecap="round" stroke-linejoin="round"/>
<path d="M873.573 630.018C878.82 625.047 882.44 619.509 883.672 615.131C884.447 612.375 884.269 610.069 882.974 608.64C881.665 607.21 879.429 606.863 876.673 607.442C872.303 608.369 866.624 611.64 861.365 616.612C852.815 624.712 848.597 634.281 851.964 637.99C855.343 641.699 865.011 638.119 873.573 630.005V630.018Z" fill="#FFE648" stroke="black" style="fill:#FFE648;fill:color(display-p3 1.0000 0.9020 0.2824);fill-opacity:1;stroke:black;stroke-opacity:1;" stroke-width="2" stroke-linecap="round" stroke-linejoin="round"/>
<path d="M869.493 617.243C869.493 617.243 860.321 625.498 862.709 628.19" stroke="black" style="stroke:black;stroke-opacity:1;" stroke-width="2" stroke-linecap="round" stroke-linejoin="round"/>
<path d="M873.982 621.737C873.982 621.737 865.394 630.623 862.727 628.189" stroke="black" style="stroke:black;stroke-opacity:1;" stroke-width="2" stroke-linecap="round" stroke-linejoin="round"/>
<path d="M860.984 629.967L871.414 619.857" stroke="black" style="stroke:black;stroke-opacity:1;" stroke-width="2" stroke-linecap="round" stroke-linejoin="round"/>
<path d="M576.562 642.495C538.476 640.95 488.779 618.618 464.172 580.331C464.172 580.331 566.272 621.722 637.883 588.921C638.048 588.753 650.18 646.449 576.549 642.495H576.562Z" fill="white" stroke="black" style="fill:white;fill-opacity:1;stroke:black;stroke-opacity:1;" stroke-width="2" stroke-linecap="round" stroke-linejoin="round"/>
<path d="M627.781 438.139C633.675 430.412 623.398 424.746 592.731 412.717C592.731 412.717 585.49 406.703 582.454 417.186C580.091 425.596 580.942 424.565 580.942 429.034C580.942 429.034 570.995 429.034 570.665 430.58C566.282 449.987 576.559 451.365 570.665 454.456C567.806 456.002 565.609 458.41 563.589 459.608C562.572 460.123 562.242 461.32 561.899 462.531C556.17 476.955 571.503 483.137 571.503 483.137C597.114 444.153 610.262 451.533 610.262 451.533C610.262 451.533 620.209 439.685 627.781 438.139Z" fill="#00EBC5" stroke="black" style="fill:#00EBC5;fill:color(display-p3 0.0000 0.9216 0.7725);fill-opacity:1;stroke:black;stroke-opacity:1;" stroke-width="2" stroke-linecap="round" stroke-linejoin="round"/>
<path d="M616.159 468.533C616.159 469.731 614.469 470.246 613.796 469.216C611.941 466.292 612.284 459.08 610.252 455.99C604.865 447.747 609.413 429.202 626.424 429.202C630.806 429.202 635.189 432.126 639.572 436.582C639.572 436.582 643.116 436.414 646.318 437.264C649.519 438.127 649.354 442.931 645.987 443.279C639.75 444.141 630.324 446.202 624.417 451.521C617.341 458.05 616.159 465.262 616.159 468.52V468.533Z" fill="#FFE373" stroke="black" style="fill:#FFE373;fill:color(display-p3 1.0000 0.8902 0.4510);fill-opacity:1;stroke:black;stroke-opacity:1;" stroke-width="2" stroke-linecap="round" stroke-linejoin="round"/>
<path d="M640.921 436.582C640.921 436.582 636.373 436.234 629.297 439.505" stroke="black" style="stroke:black;stroke-opacity:1;" stroke-width="2" stroke-linecap="round" stroke-linejoin="round"/>
<path d="M626.933 446.896C626.933 446.896 619.857 451.365 616.986 458.229C614.128 465.093 616.821 466.986 616.148 469.562C615.309 471.97 600.306 485.364 590.88 513.182C581.441 540.999 592.735 560.574 592.735 560.574C592.735 560.574 569.487 617.072 594.246 618.785C619.019 620.498 631.646 607.285 662.821 561.605C693.996 515.757 729.376 480.032 745.04 477.109C745.04 477.109 747.403 475.911 743.528 468.184C739.818 460.457 720.953 453.078 706.801 455.653C706.801 455.653 684.735 445.866 668.55 443.457C652.036 440.714 639.904 440.367 626.933 446.896Z" fill="#00EBC5" stroke="black" style="fill:#00EBC5;fill:color(display-p3 0.0000 0.9216 0.7725);fill-opacity:1;stroke:black;stroke-opacity:1;" stroke-width="2" stroke-linecap="round" stroke-linejoin="round"/>
<path d="M620.031 453.246C620.031 453.246 624.071 460.458 622.559 474.019" stroke="black" style="stroke:black;stroke-opacity:1;" stroke-width="2" stroke-linecap="round" stroke-linejoin="round"/>
<path d="M631.656 444.836C631.656 444.836 636.039 445.351 640.917 448.61" stroke="black" style="stroke:black;stroke-opacity:1;" stroke-width="2" stroke-linecap="round" stroke-linejoin="round"/>
<path d="M706.637 455.307C706.637 455.307 703.106 456.169 699.727 458.23L706.637 455.307Z" fill="#00EBC5" style="fill:#00EBC5;fill:color(display-p3 0.0000 0.9216 0.7725);fill-opacity:1;"/>
<path d="M706.637 455.307C706.637 455.307 703.106 456.169 699.727 458.23" stroke="black" style="stroke:black;stroke-opacity:1;" stroke-width="2" stroke-linecap="round" stroke-linejoin="round"/>
<path d="M537.133 624.466C544.374 628.935 557.687 631.845 586.843 622.921C655.76 601.8 685.411 498.244 733.774 472.139C743.035 467.155 753.49 464.579 763.933 464.245C829.306 463.047 887.934 486.743 887.934 486.743C831.669 514.226 816.666 585.483 736.289 621.723C686.923 644.054 617.497 646.797 572.513 642.161" fill="white" style="fill:white;fill-opacity:1;"/>
<path d="M537.133 624.466C544.374 628.935 557.687 631.845 586.843 622.921C655.76 601.8 685.411 498.244 733.774 472.139C743.035 467.155 753.49 464.579 763.933 464.245C829.306 463.047 887.934 486.743 887.934 486.743C831.669 514.226 816.666 585.483 736.289 621.723C686.923 644.054 617.497 646.797 572.513 642.161" stroke="black" style="stroke:black;stroke-opacity:1;" stroke-width="2" stroke-linecap="round" stroke-linejoin="round"/>
<path d="M733.782 622.817C754.959 612.257 777.902 589.076 796.437 568.47C823.395 535.836 846.985 496.338 886.761 481.231C860.464 479.171 833.519 474.019 806.549 468.868C771.169 463.717 744.212 489.474 723.988 515.23C686.918 563.319 649.849 607.968 597.623 635.438C589.201 638.877 579.089 644.028 568.977 642.303" stroke="black" style="stroke:black;stroke-opacity:1;" stroke-width="2" stroke-linecap="round" stroke-linejoin="round"/>
<path d="M651.536 624.118L665.18 624.981C666.87 624.981 668.039 624.813 669.893 624.466C674.784 623.268 679.497 620.86 684.719 620.86L695.161 621.542C696.851 621.542 698.032 621.194 700.052 620.512C703.419 619.134 706.963 617.588 710.495 615.876C711.333 615.528 713.188 614.678 715.551 614.498L719.933 614.845C720.95 614.845 722.296 614.678 724.824 613.3C728.191 611.407 731.392 609.346 734.428 607.118C735.775 606.255 737.299 605.405 739.142 605.225L745.036 605.573C746.726 605.405 747.729 604.89 749.584 603.68C758.845 596.468 767.102 587.878 774.852 578.786C775.423 577.948 775.69 577.588 775.868 576.558C775.868 576.364 775.589 576.068 775.195 576.042L769.3 575.695C768.83 575.669 768.614 575.553 768.474 575.347C768.411 574.51 768.627 574.149 769.643 572.939C772.171 569.848 774.534 566.924 777.049 563.834C777.888 562.636 778.231 562.456 777.888 561.606C777.888 561.438 777.38 561.091 777.215 561.091L772.832 560.743C772.489 560.743 772.159 560.575 772.159 560.395C771.993 559.712 772.159 559.197 772.997 557.987C780.911 547.851 781.077 547.851 780.911 546.654C780.911 546.486 780.403 546.139 780.238 546.139L769.796 545.456C769.453 545.456 769.122 545.108 768.957 544.941C768.792 543.911 768.957 543.911 769.796 542.713C772.159 539.789 774.521 536.879 776.872 533.956C777.71 532.925 778.053 532.062 777.71 531.728C777.532 531.56 777.367 531.38 777.037 531.38L763.393 530.517C761.703 530.517 760.865 531.38 759.353 532.925C756.99 535.849 754.64 538.759 752.277 541.683C751.769 542.365 750.092 544.091 748.237 544.091C740.149 543.636 735.318 544.267 733.742 545.984C732.726 547.362 731.557 548.727 730.541 550.105C729.194 551.651 728.013 553.363 726.666 554.909C726.158 555.591 724.304 557.485 722.627 557.485L718.244 557.137C716.732 557.485 715.716 558 714.204 559.712C711.841 562.803 709.313 565.894 706.785 568.818C704.765 571.046 703.241 571.226 702.567 571.393L696.673 571.046C694.983 571.393 694.31 571.908 692.633 573.789C681.517 586.667 673.26 593.879 665.841 599.713C665.676 599.88 665.676 600.228 666.006 600.396H666.336L672.231 600.743C672.231 600.743 673.92 600.911 672.066 602.289C671.901 602.456 671.735 602.636 671.392 602.804C668.356 605.032 664.99 607.092 661.788 608.986C661.28 609.333 660.442 609.501 660.277 610.016C660.277 610.364 660.277 610.531 660.607 610.698L664.99 611.046C665.32 611.214 665.498 611.561 665.155 611.729C664.812 612.076 664.139 612.411 663.643 612.759C660.099 614.472 656.567 616.017 653.201 617.395C652.87 617.563 652.693 617.743 652.362 617.743C652.362 617.743 651.854 617.91 651.689 618.258C651.524 618.425 652.197 618.606 652.197 618.606C655.398 618.773 659.616 619.121 662.64 619.288V619.971C662.297 620.138 661.966 620.319 661.623 620.319C658.257 621.349 655.055 622.379 651.854 623.062C651.511 623.062 651.346 623.229 651.016 623.409C651.524 623.757 650.507 623.925 651.524 624.092L651.536 624.118Z" fill="white" stroke="black" style="fill:white;fill-opacity:1;stroke:black;stroke-opacity:1;" stroke-width="2" stroke-linecap="round" stroke-linejoin="round"/>
<path d="M737.979 575.694C738.652 575.862 738.817 576.042 738.652 576.725C736.628 584.512 734.604 588.976 732.58 590.118C720.117 596.982 716.23 598.708 715.734 598.876C714.223 599.558 712.698 599.738 713.041 598.528V598.36C714.388 595.102 715.226 591.664 716.916 588.573C717.081 588.225 717.932 587.027 719.952 585.83C731.75 579.073 737.759 575.694 737.979 575.694ZM694.341 612.269C695.015 612.269 695.853 612.269 697.886 611.587C711.53 606.783 745.233 593.042 747.418 587.195C757.187 554.561 754.163 556.286 751.127 557.832C750.784 557.999 750.454 558.179 750.289 558.347C732.427 570.71 723.331 576.544 709.688 584.799C707.998 585.83 705.978 587.375 705.305 589.088C703.958 592.694 702.434 596.815 700.083 601.284C698.229 604.89 695.536 608.148 693.516 611.754C693.516 611.921 693.681 612.102 693.681 612.102C693.846 612.269 694.011 612.269 694.354 612.269H694.341Z" fill="#FFE373" stroke="black" style="fill:#FFE373;fill:color(display-p3 1.0000 0.8902 0.4510);fill-opacity:1;stroke:black;stroke-opacity:1;" stroke-width="2" stroke-linecap="round" stroke-linejoin="round"/>
<path d="M749.266 466.472C749.266 466.472 796.104 454.623 809.748 500.651C809.748 500.651 902.587 477.637 974.363 492.924C974.363 492.924 970.146 484.334 942.35 473.864C924.158 467 850.184 451.533 751.108 465.789" fill="white" style="fill:white;fill-opacity:1;"/>
<path d="M749.266 466.472C749.266 466.472 796.104 454.623 809.748 500.651C809.748 500.651 902.587 477.637 974.363 492.924C974.363 492.924 970.146 484.334 942.35 473.864C924.158 467 850.184 451.533 751.108 465.789" stroke="black" style="stroke:black;stroke-opacity:1;" stroke-width="2" stroke-linecap="round" stroke-linejoin="round"/>
<path d="M810.754 502.88C810.754 502.88 806.55 502.532 804.86 504.258C803.17 505.971 794.748 513.531 783.962 509.409C783.962 509.409 782.959 515.076 786.312 516.969C786.312 516.969 784.623 517.652 781.93 516.802C781.93 516.802 783.619 523.151 789.184 525.392C794.735 527.62 800.973 527.285 805.19 527.104C809.395 526.937 812.597 528.482 812.597 528.482C812.597 528.482 815.633 513.028 812.266 509.59C812.266 509.59 809.903 506.666 810.742 504.953V502.893L810.754 502.88Z" fill="#FFE373" stroke="black" style="fill:#FFE373;fill:color(display-p3 1.0000 0.8902 0.4510);fill-opacity:1;stroke:black;stroke-opacity:1;" stroke-width="2" stroke-linecap="round" stroke-linejoin="round"/>
<path d="M784.812 516.44C784.812 516.44 790.377 517.986 796.779 513.697L784.812 516.44Z" fill="#FFE373" style="fill:#FFE373;fill:color(display-p3 1.0000 0.8902 0.4510);fill-opacity:1;"/>
<path d="M784.812 516.44C784.812 516.44 790.377 517.986 796.779 513.697" stroke="black" style="stroke:black;stroke-opacity:1;" stroke-width="2" stroke-linecap="round" stroke-linejoin="round"/>
<path d="M806.895 504.425C806.895 504.425 803.186 502.197 805.879 499.621C808.407 497.046 811.786 498.939 812.447 500.484C812.955 502.197 812.955 507.181 806.895 504.438V504.425Z" fill="#FFE373" stroke="black" style="fill:#FFE373;fill:color(display-p3 1.0000 0.8902 0.4510);fill-opacity:1;stroke:black;stroke-opacity:1;" stroke-width="2" stroke-linecap="round" stroke-linejoin="round"/>
<path d="M971.511 520.561C975.729 516.788 989.043 525.712 988.534 514.032C988.026 502.351 979.095 495.319 976.567 495.487C974.039 495.487 974.039 497.895 974.039 497.895C975.729 506.82 964.766 526.743 964.766 526.743C966.62 525.88 970.495 526.06 970.495 526.06C970.495 526.06 976.059 526.743 977.228 522.969L977.901 519.878" fill="#FFE373" style="fill:#FFE373;fill:color(display-p3 1.0000 0.8902 0.4510);fill-opacity:1;"/>
<path d="M971.511 520.561C975.729 516.788 989.043 525.712 988.534 514.032C988.026 502.351 979.095 495.319 976.567 495.487C974.039 495.487 974.039 497.895 974.039 497.895C975.729 506.82 964.766 526.743 964.766 526.743C966.62 525.88 970.495 526.06 970.495 526.06C970.495 526.06 976.059 526.743 977.228 522.969L977.901 519.878" stroke="black" style="stroke:black;stroke-opacity:1;" stroke-width="2" stroke-linecap="round" stroke-linejoin="round"/>
<path d="M976.569 496.865C976.569 496.865 973.355 498.925 972.351 495.834C971.348 492.743 974.041 490.85 975.553 490.85C977.242 491.018 981.117 493.078 976.569 496.865Z" fill="#FFE373" stroke="black" style="fill:#FFE373;fill:color(display-p3 1.0000 0.8902 0.4510);fill-opacity:1;stroke:black;stroke-opacity:1;" stroke-width="2" stroke-linecap="round" stroke-linejoin="round"/>
<path d="M562.742 460.806C570.657 453.761 579.765 448.442 589.534 444.836" stroke="black" style="stroke:black;stroke-opacity:1;" stroke-width="2" stroke-linecap="round" stroke-linejoin="round"/>
<path d="M580.945 429.202C586.84 429.202 594.094 429.202 598.464 430.748" stroke="black" style="stroke:black;stroke-opacity:1;" stroke-width="2" stroke-linecap="round" stroke-linejoin="round"/>
<path d="M607.734 430.579C611.444 431.094 611.774 429.716 614.645 432.125" stroke="black" style="stroke:black;stroke-opacity:1;" stroke-width="2" stroke-linecap="round" stroke-linejoin="round"/>
<path d="M636.869 554.367C631.775 538.797 622.819 508.7 624.648 490.22C624.648 490.22 635.446 475.062 649.7 473.825C669.251 472.164 675.361 495.203 620.773 526.55" stroke="black" style="stroke:black;stroke-opacity:1;" stroke-width="2" stroke-linecap="round" stroke-linejoin="round"/>
<path d="M623.023 537.96C623.023 537.96 639.729 530.49 655.202 515.745" stroke="black" style="stroke:black;stroke-opacity:1;" stroke-width="2" stroke-linecap="round" stroke-linejoin="round"/>
</g>
<path d="M479.92 554.103L475.814 550.704L475.255 551.37C466.816 548.104 455.819 551.477 448.527 560.262C441.236 569.06 439.956 580.484 444.741 588.162L444.182 588.829L448.287 592.228C456.885 599.36 470.949 596.6 479.68 586.069C488.412 575.538 488.518 561.221 479.92 554.09V554.103Z" fill="#FFE648" stroke="black" style="fill:#FFE648;fill:color(display-p3 1.0000 0.9020 0.2824);fill-opacity:1;stroke:black;stroke-opacity:1;" stroke-width="2" stroke-linecap="round" stroke-linejoin="round"/>
<path d="M479.92 554.103L475.814 550.704L475.255 551.37C466.816 548.104 455.819 551.477 448.527 560.262C441.236 569.06 439.956 580.484 444.741 588.162L444.182 588.829L448.287 592.228C456.885 599.36 470.949 596.6 479.68 586.069C488.412 575.538 488.518 561.221 479.92 554.09V554.103Z" fill="#FFE648" style="fill:#FFE648;fill:color(display-p3 1.0000 0.9020 0.2824);fill-opacity:1;"/>
<path d="M479.92 554.103L475.814 550.704L475.255 551.37C466.816 548.104 455.819 551.477 448.527 560.262C441.236 569.06 439.956 580.484 444.741 588.162L444.182 588.829L448.287 592.228C456.885 599.36 470.949 596.6 479.68 586.069C488.412 575.538 488.518 561.221 479.92 554.09V554.103Z" stroke="black" style="stroke:black;stroke-opacity:1;" stroke-width="2" stroke-linecap="round" stroke-linejoin="round"/>
<path d="M475.36 582.95C484.211 572.512 484.518 558.169 476.026 550.89C467.548 543.612 453.498 546.171 444.647 556.609C435.795 567.047 435.489 581.403 443.98 588.668C452.458 595.947 466.508 593.387 475.36 582.95Z" fill="#FFE648" stroke="black" style="fill:#FFE648;fill:color(display-p3 1.0000 0.9020 0.2824);fill-opacity:1;stroke:black;stroke-opacity:1;" stroke-width="2" stroke-linecap="round" stroke-linejoin="round"/>
<path d="M449.883 568.22C449.883 568.22 456.521 558.582 463.2 563.808" stroke="black" style="stroke:black;stroke-opacity:1;" stroke-width="2" stroke-linecap="round" stroke-linejoin="round"/>
<path d="M461.445 577.711C461.445 577.711 469.657 569.313 463.205 563.808" stroke="black" style="stroke:black;stroke-opacity:1;" stroke-width="2" stroke-linecap="round" stroke-linejoin="round"/>
<path d="M464.806 562.088L456.008 572.659" stroke="black" style="stroke:black;stroke-opacity:1;" stroke-width="2" stroke-linecap="round" stroke-linejoin="round"/>
<path d="M811.388 345.491L816.933 348.945L816.374 349.857C823.475 358.417 823.901 372.584 816.617 384.561C809.321 396.527 796.626 402.509 785.876 399.956L785.317 400.868L779.772 397.414C768.159 390.179 765.812 372.681 774.543 358.344C783.274 344.008 799.763 338.256 811.388 345.491Z" fill="#FFE648" stroke="black" style="fill:#FFE648;fill:color(display-p3 1.0000 0.9020 0.2824);fill-opacity:1;stroke:black;stroke-opacity:1;" stroke-width="2" stroke-linecap="round" stroke-linejoin="round"/>
<path d="M811.388 345.491L816.933 348.945L816.374 349.857C823.475 358.417 823.901 372.584 816.617 384.561C809.321 396.527 796.626 402.509 785.876 399.956L785.317 400.868L779.772 397.414C768.159 390.179 765.812 372.681 774.543 358.344C783.274 344.008 799.763 338.256 811.388 345.491Z" fill="#FFE648" style="fill:#FFE648;fill:color(display-p3 1.0000 0.9020 0.2824);fill-opacity:1;"/>
<path d="M811.388 345.491L816.933 348.945L816.374 349.857C823.475 358.417 823.901 372.584 816.617 384.561C809.321 396.527 796.626 402.509 785.876 399.956L785.317 400.868L779.772 397.414C768.159 390.179 765.812 372.681 774.543 358.344C783.274 344.008 799.763 338.256 811.388 345.491Z" stroke="black" style="stroke:black;stroke-opacity:1;" stroke-width="2" stroke-linecap="round" stroke-linejoin="round"/>
<path d="M779.87 362.162C788.443 347.729 804.907 341.734 816.642 348.774C828.376 355.815 830.942 373.228 822.381 387.662C813.809 402.096 797.344 408.091 785.609 401.05C773.875 394.01 771.309 376.596 779.87 362.162Z" fill="#FFE648" stroke="black" style="fill:#FFE648;fill:color(display-p3 1.0000 0.9020 0.2824);fill-opacity:1;stroke:black;stroke-opacity:1;" stroke-width="2" stroke-linecap="round" stroke-linejoin="round"/>
<path d="M806.899 386.118C806.899 386.118 815.436 374.566 806.766 368.838" stroke="black" style="stroke:black;stroke-opacity:1;" stroke-width="2" stroke-linecap="round" stroke-linejoin="round"/>
<path d="M791.398 376.365C791.398 376.365 797.868 363.488 806.769 368.85" stroke="black" style="stroke:black;stroke-opacity:1;" stroke-width="2" stroke-linecap="round" stroke-linejoin="round"/>
<path d="M808.118 366.297L799.375 380.719" stroke="black" style="stroke:black;stroke-opacity:1;" stroke-width="2" stroke-linecap="round" stroke-linejoin="round"/>
<defs>
<clipPath id="clip0_13010_9971">
<rect width="450" height="266" fill="white" style="fill:white;fill-opacity:1;" transform="translate(540.195 411)"/>
</clipPath>
</defs>
</svg>
