<svg width="83" height="76" viewBox="0 0 83 76" fill="none" xmlns="http://www.w3.org/2000/svg">
<rect x="19.1206" y="28.377" width="59.4843" height="39.6562" rx="2.85391" fill="#EDF9FF" stroke="black" style="fill:#EDF9FF;fill:color(display-p3 0.9294 0.9765 1.0000);fill-opacity:1;stroke:black;stroke-opacity:1;" stroke-width="2" stroke-linejoin="round"/>
<path d="M66.0286 53.8632C66.0286 53.8632 64.3433 54.7059 62.5284 54.317C60.7783 53.8632 60.9079 51.2057 64.9915 50.363C69.075 49.5852 74.066 50.2982 74.1957 55.0948C74.3253 59.8913 66.223 64.6231 54.6853 60.7988C50.6018 59.4376 48.2683 58.3357 46.9071 57.4931C46.9071 57.4931 46.5182 57.2338 46.7126 56.9097C46.8423 56.5856 47.3608 56.7801 47.8794 56.9745C48.3979 57.169 60.5838 61.447 67.8435 58.0116C75.1031 54.6411 71.4733 50.752 66.0286 53.8632Z" fill="#DD2B1C" style="fill:#DD2B1C;fill:color(display-p3 0.8667 0.1686 0.1098);fill-opacity:1;"/>
<path d="M51.801 52.5937C52.1251 51.6862 52.7085 50.8436 53.2919 50.1306C55.6253 47.2786 59.1255 45.2692 62.885 44.9451C64.7647 44.8155 68.2001 44.8155 68.7186 47.149C68.8483 47.7323 68.589 48.3157 68.2649 48.7046C68.0056 49.0287 67.4871 49.5472 67.0982 49.0935C66.9685 48.8991 66.9685 48.6398 67.163 48.5101C68.0056 47.7323 67.7464 46.9545 66.6445 46.6952C65.5425 46.5008 64.3758 46.6952 63.3387 46.9545C61.1349 47.5379 59.1903 48.7694 57.7643 50.4547C57.0513 51.2973 56.468 52.2048 55.9494 53.1771C55.8846 53.3067 55.6253 53.7604 55.5605 53.8253L55.4957 53.9549L55.4309 54.0197C55.0419 54.992 53.8752 55.4457 52.9029 55.0568C51.9307 54.6679 51.4121 53.566 51.801 52.5937Z" fill="#DD2B1C" style="fill:#DD2B1C;fill:color(display-p3 0.8667 0.1686 0.1098);fill-opacity:1;"/>
<path d="M48.3139 46.002L19.1226 52.2037V59.2191L48.3139 46.002Z" fill="black" style="fill:black;fill-opacity:1;"/>
<rect x="0.464355" y="15.9863" width="39.9547" height="39.9528" rx="2.6917" transform="rotate(-13 0.464355 15.9863)" fill="white" stroke="black" style="fill:white;fill-opacity:1;stroke:black;stroke-opacity:1;" stroke-width="2" stroke-linejoin="round"/>
<path d="M22.4252 14.6951C22.4238 14.6954 22.424 14.6974 22.4254 14.6976C23.22 14.783 23.6093 15.2508 23.7776 16.013C24.2524 18.1687 24.7651 20.3232 25.2633 22.4812C25.4813 23.4257 25.107 24.0249 24.1627 24.2429C24.044 24.2703 23.9261 24.2975 23.807 24.325C23.4217 24.414 23.1815 24.7984 23.2705 25.1836C23.4332 25.8884 23.6032 26.5915 23.7586 27.2979C23.9051 27.9988 23.4884 28.646 22.8145 28.8093C22.1389 28.9652 21.4605 28.5785 21.2922 27.8827C20.9623 26.52 20.647 25.1541 20.3445 23.7775C20.194 23.0928 20.6013 22.4707 21.2791 22.2913C21.3211 22.28 21.3631 22.2691 21.4052 22.2584C22.0218 22.1017 22.4125 21.5003 22.2693 20.8803C22.1262 20.2603 21.5114 19.8905 20.8885 20.0206C20.8436 20.03 20.7986 20.0391 20.7535 20.0479C19.7701 20.229 18.9725 19.3264 19.2931 18.3952C19.4495 17.9459 19.7691 17.6731 20.2251 17.5602C20.4167 17.5159 20.6083 17.4717 20.8058 17.4261C21.1631 17.3436 21.4103 16.9808 21.3034 16.6301C21.115 16.0243 21.1887 15.512 21.5693 15.1057C21.7814 14.8792 22.0858 14.7735 22.3881 14.7037L22.4252 14.6951Z" fill="black" style="fill:black;fill-opacity:1;"/>
<path d="M8.33062 33.0738C8.32855 33.0743 8.32662 33.0725 8.32684 33.0704C8.41125 32.2736 8.87416 31.8618 9.64943 31.7134C10.368 31.5781 11.0804 31.383 11.794 31.2259C12.5785 31.0448 13.2586 31.4387 13.419 32.1669C13.5851 32.8861 13.1431 33.5237 12.353 33.7138C11.6911 33.8666 11.2984 34.5226 11.4334 35.1885C11.4384 35.2129 11.4432 35.2373 11.448 35.2618C11.5436 35.7753 11.3911 36.2084 10.9765 36.5337C10.5658 36.8427 10.1054 36.9031 9.6578 36.6545C9.60471 36.6254 9.55459 36.5905 9.50655 36.5517C9.15543 36.2682 8.96903 35.8253 8.86751 35.3855L8.33435 33.0761C8.33396 33.0745 8.33229 33.0734 8.33062 33.0738Z" fill="black" style="fill:black;fill-opacity:1;"/>
<path d="M15.7144 32.9487C16.0803 32.8503 16.3136 32.4951 16.2284 32.126C16.1935 31.9747 16.1591 31.8257 16.1244 31.6755C15.9365 30.8617 16.3231 30.1832 17.0568 30.0138C17.7759 29.8477 18.4259 30.3099 18.612 31.1164C18.6686 31.3614 18.726 31.6099 18.7865 31.8721C18.83 32.0607 19.0182 32.1783 19.2067 32.1348C20.5288 31.8295 21.8581 31.5226 23.1802 31.2174C24.0809 31.0095 24.6889 31.3895 24.9059 32.296C25.0635 32.979 25.2212 33.662 25.3789 34.345C25.5601 35.1297 25.15 35.806 24.4292 35.9648C23.7156 36.1218 23.0797 35.687 22.8963 34.9258C22.8482 34.7176 22.8009 34.5126 22.7503 34.2936C22.7068 34.1051 22.5187 33.9875 22.3301 34.031C20.3543 34.4872 18.3785 34.9433 16.3954 35.4011C15.4874 35.6108 14.7106 34.9636 14.7809 34.0749C14.8193 33.5456 15.1836 33.1018 15.7144 32.9487Z" fill="black" style="fill:black;fill-opacity:1;"/>
<path d="M34.7301 31.1738C34.767 31.3337 34.7955 31.4572 34.8223 31.5734C35.1679 33.0702 34.9478 33.7409 34.0543 33.9472C33.1754 34.1501 32.6786 33.6219 32.3347 32.1325C32.1216 31.2097 31.9086 30.2869 31.6956 29.3642C31.6815 29.3033 31.607 29.2775 31.5461 29.2916C31.4757 29.3078 31.4032 29.3246 31.3307 29.3413C30.3283 29.5727 29.3202 29.8131 28.3161 30.0373C27.6987 30.1798 27.1309 29.8747 26.8643 29.3163C26.6223 28.7982 26.7786 28.1499 27.2496 27.8039C27.4128 27.682 27.6206 27.5881 27.824 27.5412C29.3042 27.1918 30.7861 26.8497 32.2623 26.5165C33.0686 26.3304 33.6962 26.7288 33.8913 27.5409C34.0396 28.183 34.6767 28.5678 35.3212 28.4307C35.3796 28.4183 35.438 28.4063 35.4963 28.3949C36.4798 28.2138 37.2717 29.1253 36.9511 30.0565C36.7947 30.5058 36.4751 30.7786 36.0175 30.8843C35.6056 30.9793 35.1938 31.0744 34.739 31.1794C34.735 31.1803 34.731 31.1778 34.7301 31.1738Z" fill="black" style="fill:black;fill-opacity:1;"/>
<path d="M27.1347 41.8873C27.1329 41.8902 27.1355 41.8937 27.1387 41.8929C27.5566 41.7965 27.9389 41.7082 28.3212 41.6199C29.0946 41.4567 29.7277 41.8462 29.9184 42.6058C30.0712 43.2679 30.7274 43.6606 31.3934 43.5257C31.4177 43.5207 31.442 43.5159 31.4663 43.5112C32.3319 43.3496 33.0774 44.027 32.9932 44.8883C32.9441 45.4047 32.5887 45.8541 32.0601 45.9838C31.2064 46.1962 30.3436 46.403 29.4814 46.5791C28.8025 46.7205 28.1805 46.3131 27.9994 45.6279C27.9852 45.5751 27.9714 45.5221 27.958 45.4688C27.8078 44.8697 27.223 44.4908 26.6213 44.6297C25.7205 44.8377 25.1108 44.4504 24.9012 43.5422C24.7317 42.8083 24.5623 42.0745 24.3912 41.3334C24.2084 40.5414 24.5877 39.8646 25.3051 39.6913C26.0371 39.5146 26.682 39.955 26.8755 40.7598C26.9593 41.1227 27.0414 41.4783 27.1352 41.8845C27.1354 41.8855 27.1352 41.8865 27.1347 41.8873Z" fill="black" style="fill:black;fill-opacity:1;"/>
<path d="M38.8858 41.8047C38.8876 41.8018 38.8881 41.7984 38.8874 41.7951C38.7889 41.3685 38.7004 40.9851 38.6135 40.6088C38.457 39.8645 38.8469 39.2006 39.5426 39.0323C40.2545 38.868 40.9105 39.2904 41.0922 40.0442C41.1133 40.1357 41.1346 40.2276 41.156 40.3203C41.2717 40.8218 41.7721 41.1345 42.2736 41.0187C43.0525 40.8465 43.7343 41.2477 43.8931 41.9686C44.0502 42.6822 43.6172 43.3254 42.8472 43.5032C40.915 43.9493 38.9755 44.3971 37.0433 44.8431C36.2805 45.0192 35.606 44.6164 35.4434 43.9117C35.279 43.1998 35.7014 42.5437 36.4641 42.3676C37.2542 42.1852 38.0516 42.0011 38.8778 41.8103C38.8811 41.8096 38.884 41.8075 38.8858 41.8047Z" fill="black" style="fill:black;fill-opacity:1;"/>
<path d="M39.4035 33.8306C39.4043 33.8276 39.4043 33.8245 39.4036 33.8216C39.2194 33.024 39.0308 32.2731 38.8712 31.5156C38.6649 30.5224 39.5856 29.7052 40.5272 30.0389C40.9514 30.1858 41.2336 30.4804 41.3343 30.9163C41.6289 32.1263 41.9074 33.3325 42.173 34.5492C42.32 35.2193 41.9144 35.8487 41.2495 36.0175C40.0616 36.3071 38.8719 36.5894 37.6829 36.8409C37.004 36.9824 36.3607 36.5492 36.2081 35.888C36.0521 35.2123 36.4404 34.5411 37.1343 34.3655C37.8682 34.1809 38.6159 34.0233 39.3889 33.845C39.3962 33.8433 39.4018 33.8378 39.4035 33.8306Z" fill="black" style="fill:black;fill-opacity:1;"/>
<path d="M28.4696 36.3524C28.4688 36.3519 28.4682 36.351 28.468 36.3501C28.2819 35.5441 28.093 34.7923 27.9332 34.0338C27.7571 33.1714 28.4253 32.4202 29.2847 32.4973C29.7993 32.5392 30.2632 32.8913 30.3912 33.4127C30.6892 34.6373 30.9817 35.8708 31.2434 37.1037C31.3748 37.7392 30.9748 38.3596 30.3478 38.5273C29.6918 38.7017 29.0308 38.8543 28.3648 38.9852C27.6842 39.1193 27.0482 38.6845 26.8956 38.0233C26.7429 37.3621 27.1273 36.7071 27.7944 36.5148C27.9993 36.4524 28.2179 36.4167 28.4685 36.3592C28.4717 36.3584 28.4724 36.3541 28.4696 36.3524Z" fill="black" style="fill:black;fill-opacity:1;"/>
<path d="M34.5304 41.5802C34.5293 41.5804 34.5282 41.5805 34.5272 41.5804C34.1773 41.5544 33.8086 41.5782 33.48 41.4783C32.9781 41.3264 32.6763 40.8145 32.6931 40.2903C32.7086 39.7282 33.0534 39.266 33.5898 39.1039C33.8334 39.0324 34.0804 38.9753 34.338 38.9312C35.0348 38.8009 35.6852 39.2323 35.8323 39.9023C35.9776 40.565 35.5843 41.2144 34.9171 41.4067C34.8105 41.4313 34.704 41.4559 34.5974 41.4805C34.5676 41.4874 34.5477 41.5138 34.544 41.5442C34.5428 41.5544 34.5409 41.5642 34.538 41.5734C34.5369 41.5768 34.5339 41.5793 34.5304 41.5802Z" fill="black" style="fill:black;fill-opacity:1;"/>
<path d="M39.2613 27.5013C38.5785 27.659 37.8844 27.2377 37.7268 26.5548C37.5691 25.8719 37.9976 25.1762 38.6894 25.0241C39.3577 24.8698 40.0444 25.2928 40.206 25.9595C40.3709 26.6407 39.9497 27.3347 39.2685 27.4997L39.2613 27.5013Z" fill="black" style="fill:black;fill-opacity:1;"/>
<path d="M12.9106 16.9029C12.9119 16.8976 12.9167 16.8938 12.9221 16.8938C13.6134 16.887 14.2875 16.9382 14.9301 17.247C16.0058 17.764 16.738 18.5822 17.0298 19.7469C17.3642 21.0626 17.6711 22.3922 17.9474 23.7213C18.355 25.6859 17.1204 27.6622 15.1764 28.1569C13.8611 28.4912 12.5318 28.7981 11.203 29.0743C9.44403 29.4421 7.65297 28.4781 6.94698 26.812C6.88773 26.6808 6.82539 26.5505 6.79301 26.4102L5.82254 22.2066C5.79446 22.085 5.79568 21.9597 5.79793 21.8349C5.73575 20.7702 6.07256 19.843 6.76702 19.0398C7.1256 18.6261 7.57417 18.3401 8.05142 18.0982C8.22253 18.0114 8.40506 17.9499 8.59198 17.9067L12.9017 16.9117C12.9061 16.9107 12.9096 16.9073 12.9106 16.9029ZM12.608 26.1288C12.6108 26.1306 12.6143 26.1311 12.6176 26.1304C13.2043 25.9949 13.7982 25.8578 14.3848 25.7224C15.2129 25.5312 15.6113 24.9035 15.42 24.0752C15.1466 22.8909 14.8749 21.7138 14.6014 20.5295C14.4119 19.7085 13.7771 19.3117 12.949 19.5029C11.7649 19.7762 10.5882 20.0479 9.40413 20.3213C8.59782 20.5074 8.20118 21.1423 8.37843 21.9433C8.65353 23.1348 8.92863 24.3264 9.20373 25.518C9.38993 26.3245 10.0231 26.714 10.8311 26.5352C11.4177 26.3997 12.0116 26.2626 12.5984 26.1272C12.6016 26.1264 12.6051 26.127 12.608 26.1288Z" fill="black" style="fill:black;fill-opacity:1;"/>
<path d="M33.5511 12.1256C33.5516 12.1275 33.5533 12.1288 33.5552 12.1288C34.2341 12.1251 34.9085 12.1684 35.5351 12.4669C36.6253 12.9805 37.3681 13.8116 37.6689 14.9819C38.0032 16.2976 38.3102 17.6272 38.5865 18.9563C38.9907 20.9063 37.7651 22.8883 35.834 23.3724C34.5041 23.71 33.1675 24.0186 31.8242 24.2981C29.8747 24.7023 27.9059 23.4655 27.4144 21.5356C27.0868 20.249 26.7955 18.954 26.517 17.6484C26.1127 15.7978 27.0618 14.0099 28.8186 13.2676C28.9165 13.2297 29.004 13.1712 29.1064 13.1475L33.5462 12.1225C33.5484 12.122 33.5506 12.1234 33.5511 12.1256ZM29.4324 18.9421C29.5716 19.5452 29.7092 20.141 29.8484 20.7441C30.0363 21.5578 30.6711 21.9546 31.4718 21.7774C32.6704 21.5007 33.8779 21.2296 35.0748 20.9456C35.8447 20.7678 36.2397 20.1256 36.0692 19.3538C35.7963 18.1387 35.5162 16.9253 35.2305 15.7209C35.0543 14.958 34.405 14.5646 33.6333 14.7351C32.4331 15.0045 31.2289 15.2901 30.0303 15.5669C29.2458 15.748 28.8509 16.3902 29.0248 17.1766C29.1606 17.7651 29.2982 18.3609 29.4341 18.9494L29.4324 18.9421Z" fill="black" style="fill:black;fill-opacity:1;"/>
<path d="M10.5356 42.6507C10.5375 42.6503 10.5388 42.6486 10.5387 42.6466C10.526 41.962 10.5782 41.293 10.8766 40.6664C11.3899 39.5759 12.2208 38.8331 13.3908 38.5323C14.7062 38.1981 16.0355 37.8912 17.3642 37.615C19.3138 37.2108 21.2882 38.4387 21.7796 40.3686C22.1173 41.6988 22.426 43.0357 22.7056 44.3793C23.1098 46.3293 21.8735 48.2984 19.9441 48.7898C18.6578 49.1173 17.3632 49.4086 16.0579 49.687C14.2151 50.0895 12.438 49.1528 11.6917 47.4118C11.6487 47.2944 11.5789 47.1884 11.5508 47.0666L10.5325 42.6556C10.532 42.6534 10.5333 42.6512 10.5356 42.6507ZM13.5481 44.3506C13.6874 44.9537 13.8249 45.5494 13.9641 46.1525C14.1503 46.959 14.7869 47.3631 15.5859 47.1786C16.7772 46.9036 17.9685 46.6285 19.1598 46.3535C19.9661 46.1674 20.3627 45.5324 20.1765 44.7259C19.9014 43.5343 19.6263 42.3427 19.3512 41.1512C19.1684 40.3592 18.5336 39.9624 17.7474 40.1362C16.5471 40.4057 15.343 40.6913 14.1444 40.968C13.3599 41.1492 12.9649 41.7914 13.1388 42.5777C13.2747 43.1663 13.4123 43.7621 13.5481 44.3506Z" fill="black" style="fill:black;fill-opacity:1;"/>
<path d="M13.1412 22.7484C13.1432 22.748 13.1452 22.7492 13.1457 22.7512C13.3009 23.4329 12.8493 24.1243 12.1643 24.2671C11.4782 24.4102 10.7936 23.9638 10.6505 23.2776C10.5107 22.6059 10.9443 21.9319 11.6125 21.7776C12.2941 21.6203 12.9831 22.0559 13.1368 22.7456C13.1372 22.7476 13.1392 22.7489 13.1412 22.7484Z" fill="black" style="fill:black;fill-opacity:1;"/>
<path d="M33.7748 17.9695C33.9325 18.6523 33.495 19.3425 32.8122 19.5001C32.1294 19.6578 31.4376 19.213 31.2872 18.5285C31.1401 17.8585 31.5647 17.1789 32.2386 17.0157C32.9214 16.858 33.6172 17.2866 33.7748 17.9695Z" fill="black" style="fill:black;fill-opacity:1;"/>
<path d="M16.9501 44.8935C16.2673 45.0512 15.5771 44.6137 15.4268 43.9291C15.2691 43.2463 15.7138 42.5544 16.4 42.4113C17.07 42.2643 17.7512 42.6962 17.9055 43.3645C18.0631 44.0474 17.6346 44.7432 16.9501 44.8935Z" fill="black" style="fill:black;fill-opacity:1;"/>
</svg>
