<svg width="76" height="76" viewBox="0 0 76 76" fill="none" xmlns="http://www.w3.org/2000/svg">
<path d="M50.0177 10.9248C53.8631 11.7292 55.728 11.7963 58.5191 13.9902C68.276 21.675 71.9508 33.8026 67.6361 45.8326C61.8892 61.8422 45.2946 71.465 31.0097 68.4483C25.5615 67.2965 19.6562 65.1148 13.312 59.2521C6.61448 53.0725 7.84552 44.4431 11.5691 34.0768C17.3038 18.0733 34.5566 7.68874 50.0177 10.9248Z" fill="#FFB046" stroke="black" style="fill:#FFB046;fill:color(display-p3 1.0000 0.6902 0.2745);fill-opacity:1;stroke:black;stroke-opacity:1;" stroke-width="2" stroke-miterlimit="10"/>
<path d="M46.3304 7.59078C61.7915 10.8329 69.6957 26.489 63.9489 42.4986C58.202 58.5082 40.9553 68.8928 25.4942 65.6567C10.0331 62.4207 2.12889 46.7585 7.87576 30.7489C13.6165 14.7393 30.8693 4.35474 46.3304 7.59078Z" fill="white" stroke="black" style="fill:white;fill-opacity:1;stroke:black;stroke-opacity:1;" stroke-width="2" stroke-miterlimit="10"/>
<path d="M19.7717 47.9396L25.9391 48.5978C26.0792 48.61 26.195 48.6892 26.2804 48.805C26.3535 48.9208 26.3779 49.061 26.3413 49.1951L25.1529 53.3452L27.877 53.6317L29.1142 49.323C29.1751 49.1036 29.3884 48.9574 29.6139 48.9818L31.3995 49.1707C31.558 49.1829 31.7042 49.2012 31.8627 49.2194C31.9968 49.2316 32.1308 49.3048 32.204 49.4205C32.2893 49.5363 32.3076 49.6826 32.271 49.8167L31.0826 53.9729L33.8067 54.2594L35.0987 49.7313C35.1597 49.5302 35.3425 49.3962 35.5436 49.3901C36.5065 49.3718 37.3536 49.3048 38.0666 49.1768C39.6694 48.8903 41.1381 48.1773 42.424 47.0438C43.7099 45.9225 44.6118 44.4781 45.1055 42.7595C45.9465 39.816 45.0689 37.6769 42.4057 36.2204C42.2412 36.129 42.1437 35.9462 42.1619 35.7573C42.1802 35.5683 42.3143 35.4099 42.4971 35.355C45.1847 34.5628 46.8423 32.9417 47.5553 30.4126C48.0124 28.8342 47.9576 27.4569 47.3969 26.2076C46.8423 24.9705 46.0257 24.166 44.9165 23.7394C44.4717 23.5688 43.8866 23.4042 43.1858 23.2519C43.0517 23.2214 42.942 23.1422 42.875 23.0325C42.8079 22.9167 42.7897 22.7826 42.8262 22.6607L44.0573 18.3338L41.3453 18.0474L40.1143 22.3621C40.0533 22.5815 39.8339 22.7217 39.6146 22.6973L37.3536 22.4596C37.2134 22.4413 37.0854 22.3682 37.0123 22.2524C36.927 22.1366 36.9148 21.9965 36.9514 21.8624L38.1337 17.7122L35.4095 17.4258L34.1785 21.7344C34.1176 21.9538 33.9043 22.094 33.6788 22.0696L27.3469 21.3992L26.2865 25.1228L29.0106 25.4092C29.1507 25.4214 29.2665 25.5007 29.3519 25.6164C29.425 25.7322 29.4494 25.8724 29.4128 26.0065L24.2144 44.1917C24.1535 44.4111 23.9402 44.5512 23.7147 44.5269L20.826 44.2222L19.7595 47.9396H19.7656H19.7717ZM33.691 32.6858L35.4644 26.4879C35.5253 26.2685 35.7386 26.1284 35.9641 26.1527L37.6949 26.3356C39.3647 26.5123 40.4677 26.8901 41.0406 27.4874C41.6561 28.1334 41.7841 29.0963 41.4245 30.3517C41.0467 31.668 40.4068 32.5761 39.5231 33.0453C38.6517 33.5024 37.5181 33.6426 36.0494 33.4902L34.0932 33.283C33.953 33.2708 33.825 33.1916 33.7519 33.0758C33.6666 32.96 33.6544 32.8198 33.691 32.6858ZM30.266 44.667L32.3685 37.3235C32.4294 37.1041 32.6427 36.9578 32.8682 36.9822L34.8245 37.1894C36.6162 37.3783 37.8168 37.8293 38.5115 38.5667C39.2367 39.3346 39.3769 40.5108 38.9259 42.0709C38.5115 43.5152 37.8046 44.5147 36.8356 45.0327C35.891 45.5324 34.5137 45.6787 32.6123 45.4776L30.6621 45.2704C30.5219 45.2582 30.394 45.179 30.3147 45.0632C30.2416 44.9474 30.2172 44.8072 30.2538 44.6731L30.266 44.667Z" fill="#FFB046" stroke="black" style="fill:#FFB046;fill:color(display-p3 1.0000 0.6902 0.2745);fill-opacity:1;stroke:black;stroke-opacity:1;" stroke-width="2" stroke-linecap="round" stroke-linejoin="round"/>
</svg>
