<svg width="140" height="64" viewBox="0 0 140 64" fill="none" xmlns="http://www.w3.org/2000/svg">
<g clip-path="url(#clip0_10893_12723)">
<path d="M44.0615 23.2715C45.1352 23.2715 45.9352 23.9352 45.9352 24.9307V25.1173C45.9352 26.1232 45.1352 26.7765 44.0615 26.7765C42.9878 26.7765 42.1562 26.1128 42.1562 25.1173V24.9307C42.1562 23.9248 42.9878 23.2715 44.0615 23.2715Z" fill="#141414" style="fill:#141414;fill:color(display-p3 0.0784 0.0784 0.0784);fill-opacity:1;"/>
<path d="M131.531 34.4921C131.531 30.8005 129.121 28.0732 125.289 28.0732C121.457 28.0732 118.668 30.9249 118.668 34.7203V35.695C118.668 39.4178 121.405 42.3732 125.415 42.3732C128.068 42.3732 130.184 41.2118 131.521 38.7542L129.131 37.4372C128.163 39.0756 127.015 39.7911 125.384 39.7911C123.131 39.7911 121.605 38.4223 121.468 35.9128H131.521V34.4921H131.531ZM121.594 33.6729C121.942 31.6923 123.205 30.562 125.289 30.562C127.594 30.562 128.563 32.1693 128.615 33.6729H121.594Z" fill="#141414" style="fill:#141414;fill:color(display-p3 0.0784 0.0784 0.0784);fill-opacity:1;"/>
<path d="M91.0065 28.3947V30.0538C90.0381 28.8614 88.4591 28.0732 86.5855 28.0732C82.996 28.0732 80.1328 30.8731 80.1328 34.7825V35.6847C80.1328 39.5941 82.996 42.394 86.5855 42.394C88.4591 42.394 90.0381 41.6059 91.0065 40.4133V42.0725H93.9539V28.3947H91.0065ZM91.0065 35.5499C91.0065 38.132 89.4802 39.8015 87.0697 39.8015C84.6591 39.8015 83.1328 38.1423 83.1328 35.5499V34.9173C83.1328 32.3352 84.6591 30.6657 87.0697 30.6657C89.4802 30.6657 91.0065 32.3248 91.0065 34.9173V35.5499Z" fill="#141414" style="fill:#141414;fill:color(display-p3 0.0784 0.0784 0.0784);fill-opacity:1;"/>
<path d="M34.2078 28.0836C32.3342 28.0836 30.7554 28.8717 29.787 30.0641V23.5938H26.8398V35.5806C26.8398 39.8527 29.8712 42.3932 33.7026 42.3932C37.7444 42.3932 40.6706 39.5727 40.6706 35.6843V34.8132C40.6706 30.8833 37.8076 28.0836 34.2183 28.0836H34.2078ZM37.7234 35.6324C37.7234 38.1107 36.1656 39.8008 33.7552 39.8008C31.3448 39.8008 29.787 38.1625 29.787 35.6324V34.9169C29.787 32.335 31.3448 30.6655 33.7552 30.6655C36.1656 30.6655 37.7234 32.3246 37.7234 34.9169V35.6324Z" fill="#141414" style="fill:#141414;fill:color(display-p3 0.0784 0.0784 0.0784);fill-opacity:1;"/>
<path d="M109.224 34.2533L114.824 28.3947H118.655L113.087 33.9422L119.192 42.0717H115.571L111.077 35.9227L109.224 37.7374V42.0717H106.277V23.5938H109.224V34.2533Z" fill="#141414" style="fill:#141414;fill:color(display-p3 0.0784 0.0784 0.0784);fill-opacity:1;"/>
<path d="M102.858 28.0836C103.658 28.0836 104.384 28.2703 104.973 28.6332L104.279 31.2775C103.742 31.039 103.205 30.8834 102.563 30.8834C100.689 30.8834 99.2677 32.3041 99.2677 34.6892V42.0829H96.3203V28.3947H99.2677V30.2923C100.068 28.6851 101.416 28.0732 102.858 28.0732V28.0836Z" fill="#141414" style="fill:#141414;fill:color(display-p3 0.0784 0.0784 0.0784);fill-opacity:1;"/>
<path d="M73.4483 28.0836C76.6061 28.0836 78.5428 30.1989 78.5428 33.8385V42.0717H75.5956V33.9111C75.5956 31.9098 74.6799 30.6655 72.9747 30.6655C71.0695 30.6655 69.9749 31.9824 69.9749 34.0977V42.0717H67.0277V34.0977C67.0277 31.9824 66.2277 30.6655 64.3752 30.6655C62.6069 30.6655 61.3964 31.9824 61.3964 34.1807V42.0717H58.4492V28.3947H61.3964V30.1056C62.1437 28.9754 63.3752 28.0732 65.2593 28.0732C67.1329 28.0732 68.5539 29.0998 69.196 30.5826C69.9222 29.2346 71.2906 28.0732 73.4589 28.0732L73.4483 28.0836Z" fill="#141414" style="fill:#141414;fill:color(display-p3 0.0784 0.0784 0.0784);fill-opacity:1;"/>
<path d="M54.9138 28.0836C55.7138 28.0836 56.4401 28.2703 57.0296 28.6332L56.3349 31.2775C55.798 31.039 55.2612 30.8834 54.6191 30.8834C52.7454 30.8834 51.3243 32.3041 51.3243 34.6892V42.0829H48.377V28.3947H51.3243V30.2923C52.1243 28.6851 53.4717 28.0732 54.9138 28.0732V28.0836Z" fill="#141414" style="fill:#141414;fill:color(display-p3 0.0784 0.0784 0.0784);fill-opacity:1;"/>
<path d="M45.5353 28.3945H42.5879V42.0724H45.5353V28.3945Z" fill="#141414" style="fill:#141414;fill:color(display-p3 0.0784 0.0784 0.0784);fill-opacity:1;"/>
<path d="M137.467 28.3952H140.003V30.9771H137.467V33.725V38.2563C137.467 39.2622 137.919 39.5732 138.751 39.5732C139.014 39.5732 139.182 39.5421 139.372 39.4903L139.666 41.9685C139.287 42.1033 138.866 42.1552 138.351 42.1552C135.888 42.1552 134.519 40.8072 134.519 38.0904V36.6595V30.9667H132.088V28.3848H134.519V24.4756H137.467V28.3848V28.3952Z" fill="#141414" style="fill:#141414;fill:color(display-p3 0.0784 0.0784 0.0784);fill-opacity:1;"/>
<path d="M17.6825 32.1269L10.3145 19.6941C9.76717 18.7712 8.41988 18.7712 7.87254 19.6941L0.515081 32.1269C-0.169089 33.2779 -0.169089 34.7088 0.515081 35.8702L7.88307 48.3133C8.43041 49.2361 9.7777 49.2361 10.325 48.3133L17.693 35.8702C18.3772 34.7192 18.3772 33.2882 17.693 32.1269H17.6825ZM13.9143 35.0614L9.39877 42.5583C9.26194 42.7865 8.92511 42.7865 8.78828 42.5583L4.27275 35.0614C3.87278 34.4081 3.87278 33.5889 4.27275 32.9357L8.78828 25.4387C8.92511 25.2105 9.26194 25.2105 9.39877 25.4387L13.9143 32.9357C14.3143 33.5889 14.3143 34.4081 13.9143 35.0614Z" fill="#141414" style="fill:#141414;fill:color(display-p3 0.0784 0.0784 0.0784);fill-opacity:1;"/>
</g>
<defs>
<clipPath id="clip0_10893_12723">
<rect width="140" height="30" fill="white" style="fill:white;fill-opacity:1;" transform="translate(0 19)"/>
</clipPath>
</defs>
</svg>
