<svg width="24" height="25" viewBox="0 0 24 25" fill="none" xmlns="http://www.w3.org/2000/svg">
<path d="M12 2.49609C15.5742 2.49609 18.3873 3.29942 20.292 5.2041C22.1181 7.03019 22.9291 9.69139 22.9932 13.0576C22.997 13.12 23 13.1828 23 13.2461V16.2461C23 16.2985 22.9978 16.3506 22.9951 16.4023C23.0013 16.469 23.0018 16.5373 22.9941 16.6064L22.8896 17.5479C22.6083 20.08 20.4676 21.996 17.9199 21.9961H12C11.4477 21.9961 11 21.5484 11 20.9961V19.9961C11 19.4438 11.4477 18.9961 12 18.9961H14C14.5523 18.9961 15 19.4438 15 19.9961H17.9199C18.6761 19.9961 19.3722 19.7144 19.9033 19.2461H19C17.3431 19.2461 16 17.9029 16 16.2461V13.2461C16 11.5892 17.3431 10.2461 19 10.2461H20C20.2452 10.2461 20.4828 10.2785 20.7109 10.334C20.3755 8.70769 19.7545 7.49666 18.877 6.61914C17.5046 5.24679 15.3177 4.49609 12 4.49609C8.68226 4.49609 6.49539 5.24679 5.12305 6.61914C4.24549 7.4967 3.62351 8.70759 3.28809 10.334C3.51649 10.2783 3.75447 10.2461 4 10.2461H5C6.65685 10.2461 8 11.5892 8 13.2461V16.2461C8 17.9029 6.65685 19.2461 5 19.2461H4C2.34315 19.2461 1 17.9029 1 16.2461V13.2461C1 13.1828 1.002 13.1199 1.00586 13.0576C1.0699 9.69138 1.88192 7.03019 3.70801 5.2041C5.61269 3.29942 8.42585 2.49609 12 2.49609ZM4 12.2461C3.48298 12.2461 3.0571 12.6384 3.00488 13.1416C3.00294 13.2583 3 13.3765 3 13.4961V16.2461C3 16.7984 3.44772 17.2461 4 17.2461H5C5.55228 17.2461 6 16.7984 6 16.2461V13.2461C6 12.6938 5.55228 12.2461 5 12.2461H4ZM19 12.2461C18.4477 12.2461 18 12.6938 18 13.2461V16.2461C18 16.7984 18.4477 17.2461 19 17.2461H20C20.5523 17.2461 21 16.7984 21 16.2461V13.4961C21 13.3764 20.9961 13.2583 20.9941 13.1416C20.9419 12.6384 20.517 12.2461 20 12.2461H19Z" fill="white"/>
</svg>
