<svg width="16" height="16" viewBox="0 0 16 16" fill="none" xmlns="http://www.w3.org/2000/svg">
<path d="M13.1339 6.00336C13.5681 5.96466 13.9556 6.2649 13.9972 6.67328C14.0379 7.081 13.7194 7.44305 13.2862 7.48285L13.2823 7.48383C13.2717 7.48517 13.2512 7.48795 13.2228 7.49262C13.1645 7.5022 13.07 7.51926 12.9464 7.55023C12.6983 7.61245 12.3304 7.72917 11.8868 7.93891C11.0033 8.3568 9.80101 9.15659 8.64366 10.6879C8.62415 10.7137 8.60337 10.7384 8.58116 10.7612C8.57688 10.7655 8.5719 10.7696 8.56749 10.7739C8.55465 10.7864 8.54105 10.7985 8.52745 10.81C8.50564 10.8284 8.48349 10.8474 8.45909 10.8637C8.44665 10.872 8.43279 10.8786 8.42003 10.8862C8.41637 10.8883 8.41296 10.8909 8.40929 10.893C8.37341 10.9134 8.33578 10.9303 8.29796 10.9448C8.27089 10.9551 8.24298 10.9627 8.21495 10.9702C8.19493 10.9755 8.17467 10.981 8.1544 10.9848C8.12629 10.9901 8.09801 10.9932 8.06944 10.9955C8.04643 10.9974 8.02312 10.9995 8.00011 10.9995C7.97703 10.9994 7.95384 10.9975 7.93077 10.9955C7.90205 10.9931 7.8731 10.9901 7.84483 10.9848C7.82473 10.981 7.80514 10.9755 7.78526 10.9702C7.75709 10.9627 7.72849 10.9552 7.70128 10.9448C7.66364 10.9303 7.62663 10.9134 7.59093 10.893C7.58712 10.8908 7.58298 10.8884 7.57921 10.8862C7.56683 10.8788 7.55417 10.8718 7.5421 10.8637C7.5173 10.8471 7.49391 10.8287 7.47179 10.81C7.42968 10.7743 7.39078 10.7332 7.35655 10.6879C6.19934 9.15684 4.99783 8.35681 4.11437 7.93891C3.67053 7.729 3.30196 7.61245 3.05382 7.55023C2.93048 7.51932 2.83672 7.50221 2.77843 7.49262C2.74966 7.48789 2.7285 7.48516 2.71788 7.48383L2.71397 7.48285C2.28083 7.44302 1.96324 7.081 2.00401 6.67328C2.04556 6.26499 2.43124 5.96482 2.86534 6.00336L2.86729 6.00434L2.86925 6.00336L2.87511 6.00434C2.87869 6.00467 2.88305 6.00481 2.8878 6.00531C2.89796 6.0064 2.91154 6.00827 2.92687 6.01019C2.95756 6.01405 2.99875 6.01954 3.04894 6.02777C3.15 6.04437 3.29005 6.07183 3.46104 6.11469C3.80357 6.2006 4.27498 6.35097 4.82433 6.61078C5.74921 7.04827 6.88353 7.79249 8.00011 9.04437C9.11669 7.79239 10.251 7.04832 11.1759 6.61078C11.7254 6.3509 12.1976 6.2006 12.5401 6.11469C12.7111 6.07186 12.8513 6.04435 12.9523 6.02777C13.0024 6.01956 13.0437 6.01404 13.0743 6.01019C13.0894 6.0083 13.1024 6.00639 13.1124 6.00531C13.1174 6.00478 13.1224 6.0047 13.1261 6.00434L13.131 6.00336L13.1329 6.00434L13.1339 6.00336C13.1343 6.00716 13.1406 6.06639 13.2091 6.74359C13.2226 6.87739 13.2351 6.98782 13.2442 7.07758L13.1339 6.00336Z" fill="black"/>
</svg>
