<svg width="24" height="25" viewBox="0 0 24 25" fill="none" xmlns="http://www.w3.org/2000/svg">
<path d="M13 22.2461V11.4461C13 10.326 13 9.76594 13.218 9.33811C13.4097 8.96179 13.7157 8.65583 14.092 8.46408C14.5198 8.24609 15.0799 8.24609 16.2 8.24609H17M10 14.2461H17" stroke="white" stroke-width="2" stroke-linecap="round" stroke-linejoin="round"/>
<path fill-rule="evenodd" clip-rule="evenodd" d="M12 1.24609C15.5742 1.24609 18.3873 2.04942 20.292 3.9541C22.1967 5.85878 23 8.67194 23 12.2461C23 15.8202 22.1967 18.6334 20.292 20.5381C18.3873 22.4428 15.5742 23.2461 12 23.2461C8.42585 23.2461 5.61269 22.4428 3.70801 20.5381C1.80333 18.6334 1 15.8202 1 12.2461C1 8.67194 1.80333 5.85878 3.70801 3.9541C5.61269 2.04942 8.42585 1.24609 12 1.24609ZM12 3.24609C8.68226 3.24609 6.49539 3.99679 5.12305 5.36914C3.7507 6.74149 3 8.92835 3 12.2461C3 15.5638 3.7507 17.7507 5.12305 19.123C6.49539 20.4954 8.68226 21.2461 12 21.2461C15.3177 21.2461 17.5046 20.4954 18.877 19.123C20.2493 17.7507 21 15.5638 21 12.2461C21 8.92835 20.2493 6.74149 18.877 5.36914C17.5046 3.99679 15.3177 3.24609 12 3.24609Z" fill="white"/>
</svg>
