<svg width="52" height="72" viewBox="0 0 52 72" fill="none" xmlns="http://www.w3.org/2000/svg">
<g clip-path="url(#clip0_10694_52991)">
<path fill-rule="evenodd" clip-rule="evenodd" d="M26.491 5.56259C26.4039 5.42229 26.2793 5.30589 26.1295 5.225C25.9797 5.14411 25.81 5.10154 25.6373 5.10154C25.4646 5.10154 25.2949 5.14411 25.1452 5.225C24.9954 5.30589 24.8708 5.42229 24.7837 5.56259L18.2354 16.1172C18.1477 16.2588 18.1013 16.4197 18.101 16.5836C18.1007 16.7475 18.1464 16.9086 18.2336 17.0505L24.7781 27.7143C24.865 27.8558 24.99 27.9733 25.1405 28.055C25.291 28.1367 25.4617 28.1797 25.6355 28.1797C25.8092 28.1797 25.9799 28.1367 26.1304 28.055C26.2809 27.9733 26.4059 27.8558 26.4928 27.7143L33.0392 17.047C33.1262 16.905 33.1718 16.744 33.1715 16.5801C33.1712 16.4163 33.1249 16.2554 33.0373 16.1137L26.491 5.56083V5.56259ZM9.38462 33.173C9.21049 33.1732 9.03941 33.1301 8.88869 33.048C8.73797 32.966 8.61297 32.848 8.52633 32.7059C8.43969 32.5638 8.39449 32.4027 8.39531 32.2389C8.39613 32.0751 8.44293 31.9144 8.53099 31.7731L14.6019 21.9827C14.689 21.8418 14.814 21.7248 14.9644 21.6437C15.1147 21.5626 15.2851 21.52 15.4585 21.5204C15.6318 21.5207 15.802 21.564 15.952 21.6457C16.1019 21.7275 16.2264 21.8449 16.3129 21.9862L22.322 31.7767C22.4088 31.9181 22.4545 32.0785 22.4544 32.2418C22.4544 32.4052 22.4086 32.5656 22.3217 32.707C22.2348 32.8483 22.1098 32.9657 21.9593 33.0472C21.8089 33.1287 21.6383 33.1715 21.4646 33.1713H9.38275L9.38462 33.173ZM9.35093 37.2054C9.17713 37.2057 9.00648 37.249 8.8561 37.3309C8.70572 37.4128 8.58091 37.5306 8.49422 37.6722C8.40752 37.8139 8.362 37.9746 8.36221 38.138C8.36242 38.3015 8.40836 38.4621 8.49542 38.6035L14.6019 48.4503C14.9856 49.0666 15.9329 49.0666 16.3129 48.4468L22.3576 38.6C22.4449 38.4585 22.4909 38.2979 22.4911 38.1343C22.4913 37.9708 22.4456 37.81 22.3586 37.6684C22.2716 37.5268 22.1465 37.4092 21.9957 37.3276C21.845 37.246 21.6741 37.2032 21.5002 37.2037L9.35093 37.2054ZM29.7763 37.2054C29.6027 37.2052 29.4321 37.248 29.2816 37.3295C29.1312 37.411 29.0062 37.5283 28.9193 37.6697C28.8324 37.8111 28.7866 37.9715 28.7865 38.1348C28.7865 38.2981 28.8321 38.4586 28.9189 38.6L34.9655 48.4486C35.3436 49.0666 36.2946 49.0684 36.6765 48.4521L42.783 38.6035C42.87 38.4621 42.916 38.3015 42.9162 38.138C42.9164 37.9746 42.8709 37.8139 42.7842 37.6722C42.6975 37.5306 42.5727 37.4128 42.4223 37.3309C42.2719 37.249 42.1013 37.2057 41.9275 37.2054H29.7763ZM41.8938 33.173C42.0681 33.1735 42.2394 33.1306 42.3904 33.0487C42.5413 32.9668 42.6666 32.8488 42.7535 32.7066C42.8403 32.5645 42.8857 32.4033 42.885 32.2394C42.8842 32.0754 42.8374 31.9146 42.7493 31.7731L36.6746 21.9792C36.5875 21.8382 36.4625 21.7213 36.3121 21.6402C36.1618 21.559 35.9914 21.5165 35.8181 21.5169C35.6447 21.5172 35.4745 21.5604 35.3246 21.6422C35.1746 21.724 35.0501 21.8414 34.9636 21.9827L28.9526 31.7767C28.8658 31.9181 28.8202 32.0785 28.8202 32.2418C28.8203 32.4052 28.8661 32.5656 28.953 32.707C29.0399 32.8483 29.1649 32.9657 29.3153 33.0472C29.4658 33.1287 29.6364 33.1715 29.81 33.1713L41.8938 33.173ZM26.4947 64.8687C26.4078 65.0094 26.2831 65.1262 26.1331 65.2073C25.9831 65.2885 25.8132 65.3312 25.6401 65.3312C25.4671 65.3312 25.2971 65.2885 25.1472 65.2073C24.9972 65.1262 24.8725 65.0094 24.7856 64.8687L18.2354 54.3158C18.1474 54.1743 18.1007 54.0135 18.1001 53.8496C18.0994 53.6857 18.1448 53.5246 18.2317 53.3825L24.7781 42.7169C24.8648 42.5754 24.9896 42.4578 25.1399 42.3761C25.2903 42.2944 25.4609 42.2513 25.6345 42.2513C25.8082 42.2513 25.9788 42.2944 26.1291 42.3761C26.2795 42.4578 26.4043 42.5754 26.491 42.7169L33.0373 53.3825C33.1248 53.5243 33.1708 53.6853 33.1708 53.8492C33.1708 54.0131 33.1248 54.174 33.0373 54.3158L26.491 64.8722L26.4947 64.8687ZM22.0768 1.92287C23.668 -0.640956 27.6067 -0.640956 29.1979 1.92287L48.633 33.2646C49.3818 34.4708 49.3818 35.964 48.633 37.172L29.1979 68.5084C27.6067 71.074 23.668 71.074 22.0768 68.5084L2.64168 37.1702C1.89288 35.9622 1.89288 34.469 2.64168 33.2611L22.0768 1.92287Z" fill="black" style="fill:black;fill-opacity:1;"/>
</g>
<defs>
<clipPath id="clip0_10694_52991">
<rect width="52" height="72" fill="white" style="fill:white;fill-opacity:1;"/>
</clipPath>
</defs>
</svg>
