<svg width="24" height="25" viewBox="0 0 24 25" fill="none" xmlns="http://www.w3.org/2000/svg">
<path d="M12 3.24616C14.0074 3.24616 15.7011 3.23957 17.0742 3.36237C18.4412 3.48465 19.6414 3.7442 20.5957 4.37897C21.5932 5.04257 22.1956 6.02744 22.5439 7.32233C22.8833 8.58408 23 10.205 23 12.2462C23 14.2873 22.8833 15.9082 22.5439 17.17C22.1956 18.4649 21.5932 19.4498 20.5957 20.1133C19.6414 20.7481 18.4412 21.0077 17.0742 21.1299C15.7011 21.2527 14.0074 21.2462 12 21.2462C9.99257 21.2462 8.29894 21.2527 6.92578 21.1299C5.55879 21.0077 4.35862 20.7481 3.4043 20.1133C2.40678 19.4498 1.80445 18.4649 1.45605 17.17C1.11667 15.9082 1 14.2873 1 12.2462C1 10.205 1.11668 8.58408 1.45605 7.32233C1.80444 6.02744 2.40678 5.04257 3.4043 4.37897C4.35863 3.7442 5.55878 3.48465 6.92578 3.36237C8.29894 3.23957 9.99257 3.24616 12 3.24616ZM16.4678 11.3546C13.6236 12.6186 10.3764 12.6186 7.53223 11.3546L3.12109 9.39459C3.03989 10.1773 3 11.1161 3 12.2462C3 14.2506 3.11958 15.6537 3.3877 16.6505C3.64684 17.6135 4.02346 18.1235 4.51172 18.4483C5.04327 18.8019 5.83639 19.0244 7.10449 19.1378C8.3668 19.2506 9.95157 19.2462 12 19.2462C14.0484 19.2462 15.6332 19.2506 16.8955 19.1378C18.1636 19.0244 18.9567 18.8019 19.4883 18.4483C19.9765 18.1235 20.3532 17.6135 20.6123 16.6505C20.8804 15.6537 21 14.2506 21 12.2462C21 11.116 20.9591 10.1773 20.8779 9.39459L16.4678 11.3546ZM12 5.24616C9.95157 5.24616 8.3668 5.24167 7.10449 5.35455C5.83637 5.46796 5.04326 5.69043 4.51172 6.04401C4.10677 6.31341 3.78025 6.71078 3.53223 7.38776L8.34473 9.52741C10.6718 10.5616 13.3282 10.5616 15.6553 9.52741L20.4668 7.38776C20.2188 6.71097 19.8932 6.31337 19.4883 6.04401C18.9567 5.69043 18.1636 5.46796 16.8955 5.35455C15.6332 5.24167 14.0484 5.24616 12 5.24616Z" fill="white"/>
</svg>
