<svg width="121" height="41" viewBox="0 0 121 41" fill="none" xmlns="http://www.w3.org/2000/svg">
<rect x="0.875" y="0.722656" width="119.167" height="39.7222" rx="5.95833" fill="white" style="fill:white;fill-opacity:1;"/>
<path d="M18.556 20.0487L8.9082 30.5198C8.90911 30.5216 8.90911 30.5244 8.91002 30.5263C9.20633 31.6632 10.2212 32.5 11.4264 32.5C11.9085 32.5 12.3606 32.3666 12.7485 32.1331L12.7793 32.1145L23.6385 25.7068L18.556 20.0487Z" fill="#EA4335" style="fill:#EA4335;fill:color(display-p3 0.9176 0.2627 0.2078);fill-opacity:1;"/>
<path d="M28.3153 18.267L28.3063 18.2606L23.6179 15.4816L18.3359 20.288L23.6369 25.707L28.2999 22.9558C29.1173 22.5036 29.6727 21.6224 29.6727 20.6068C29.6727 19.5968 29.1254 18.7202 28.3153 18.267Z" fill="#FBBC04" style="fill:#FBBC04;fill:color(display-p3 0.9843 0.7373 0.0157);fill-opacity:1;"/>
<path d="M8.90911 10.6459C8.85112 10.8646 8.82031 11.0944 8.82031 11.3316V29.8347C8.82031 30.072 8.85112 30.3018 8.91002 30.5195L18.8885 20.3163L8.90911 10.6459Z" fill="#4285F4" style="fill:#4285F4;fill:color(display-p3 0.2588 0.5216 0.9569);fill-opacity:1;"/>
<path d="M18.6275 20.584L23.6204 15.4791L12.7738 9.04825C12.3797 8.8064 11.9193 8.6674 11.4273 8.6674C10.2221 8.6674 9.20542 9.50601 8.90911 10.6439C8.90911 10.6449 8.9082 10.6458 8.9082 10.6467L18.6275 20.584Z" fill="#34A853" style="fill:#34A853;fill:color(display-p3 0.2039 0.6588 0.3255);fill-opacity:1;"/>
<path d="M44.1297 11.443C44.1297 12.4292 43.8371 13.2148 43.252 13.8C42.5946 14.4968 41.73 14.8453 40.6584 14.8453C39.6328 14.8453 38.765 14.4903 38.0549 13.7802C37.3449 13.0702 36.9899 12.1958 36.9899 11.157C36.9899 10.1183 37.3449 9.2439 38.0549 8.53387C38.765 7.82383 39.6328 7.46881 40.6584 7.46881C41.1778 7.46881 41.6676 7.56085 42.1278 7.74494C42.588 7.92902 42.966 8.18871 43.2619 8.524L42.611 9.17487C42.394 8.91189 42.1113 8.70809 41.7629 8.56345C41.421 8.41224 41.0529 8.33663 40.6584 8.33663C39.8892 8.33663 39.2383 8.6029 38.7058 9.13542C38.1798 9.67452 37.9169 10.3484 37.9169 11.157C37.9169 11.9657 38.1798 12.6396 38.7058 13.1787C39.2383 13.7112 39.8892 13.9775 40.6584 13.9775C41.3619 13.9775 41.947 13.7802 42.4138 13.3858C42.8805 12.9913 43.1501 12.4489 43.2224 11.7586H40.6584V10.9105H44.0804C44.1132 11.0946 44.1297 11.2721 44.1297 11.443ZM49.3542 7.6266V8.49442H46.1393V10.733H49.0386V11.5811H46.1393V13.8197H49.3542V14.6875H45.232V7.6266H49.3542ZM52.9831 8.49442V14.6875H52.0759V8.49442H50.1036V7.6266H54.9555V8.49442H52.9831ZM58.9767 14.6875H58.0694V7.6266H58.9767V14.6875ZM62.8062 8.49442V14.6875H61.899V8.49442H59.9266V7.6266H64.7785V8.49442H62.8062ZM74.6129 11.157C74.6129 12.2024 74.2644 13.0768 73.5675 13.7802C72.8641 14.4903 72.0028 14.8453 70.9838 14.8453C69.9582 14.8453 69.0969 14.4903 68.4001 13.7802C67.7032 13.0768 67.3547 12.2024 67.3547 11.157C67.3547 10.1117 67.7032 9.23733 68.4001 8.53387C69.0969 7.82383 69.9582 7.46881 70.9838 7.46881C72.0094 7.46881 72.8706 7.82712 73.5675 8.54373C74.2644 9.24719 74.6129 10.1183 74.6129 11.157ZM68.2817 11.157C68.2817 11.9723 68.5381 12.6462 69.0509 13.1787C69.5703 13.7112 70.2146 13.9775 70.9838 13.9775C71.753 13.9775 72.394 13.7112 72.9068 13.1787C73.4262 12.6527 73.6859 11.9788 73.6859 11.157C73.6859 10.3353 73.4262 9.66137 72.9068 9.13542C72.394 8.6029 71.753 8.33663 70.9838 8.33663C70.2146 8.33663 69.5703 8.6029 69.0509 9.13542C68.5381 9.66795 68.2817 10.3418 68.2817 11.157ZM76.5908 14.6875H75.6835V7.6266H76.788L80.2199 13.1195H80.2593L80.2199 11.7586V7.6266H81.1271V14.6875H80.1804L76.5908 8.92833H76.5514L76.5908 10.2892V14.6875Z" fill="#111111" style="fill:#111111;fill:color(display-p3 0.0667 0.0667 0.0667);fill-opacity:1;"/>
<path d="M93.7437 31.9971H95.3612V21.062H93.7437V31.9971ZM108.312 25.001L106.458 29.742H106.403L104.478 25.001H102.736L105.622 31.6271L103.977 35.3132H105.663L110.111 25.001H108.312ZM99.1397 30.755C98.6092 30.755 97.8706 30.4882 97.8706 29.826C97.8706 28.9828 98.7904 28.6591 99.5852 28.6591C100.296 28.6591 100.631 28.8139 101.063 29.0247C100.937 30.0377 100.073 30.755 99.1397 30.755ZM99.3347 24.7622C98.1636 24.7622 96.9501 25.2826 96.4491 26.4364L97.8845 27.0408C98.1914 26.4364 98.7626 26.2387 99.3625 26.2387C100.199 26.2387 101.049 26.7452 101.063 27.6462V27.7581C100.77 27.5893 100.143 27.3365 99.3763 27.3365C97.829 27.3365 96.2532 28.1946 96.2532 29.798C96.2532 31.2614 97.5222 32.2044 98.9438 32.2044C100.032 32.2044 100.631 31.7119 101.008 31.1346H101.063V31.9787H102.624V27.7861C102.624 25.8451 101.189 24.7622 99.3347 24.7622ZM89.3385 26.3323H87.0379V22.5841H89.3385C90.5477 22.5841 91.2342 23.5944 91.2342 24.4578C91.2342 25.3054 90.5477 26.3323 89.3385 26.3323ZM89.2969 21.062H85.4213V31.9971H87.0379V27.8543H89.2969C91.0895 27.8543 92.8517 26.544 92.8517 24.4578C92.8517 22.3715 91.0895 21.062 89.2969 21.062ZM68.1628 30.7567C67.0454 30.7567 66.1101 29.8129 66.1101 28.5165C66.1101 27.2062 67.0454 26.2475 68.1628 26.2475C69.2662 26.2475 70.1313 27.2062 70.1313 28.5165C70.1313 29.8129 69.2662 30.7567 68.1628 30.7567ZM70.0204 25.6133H69.964C69.6008 25.1768 68.903 24.7823 68.0232 24.7823C66.1795 24.7823 64.49 26.4163 64.49 28.5165C64.49 30.6019 66.1795 32.2228 68.0232 32.2228C68.903 32.2228 69.6008 31.8283 69.964 31.3769H70.0204V31.9131C70.0204 33.3363 69.2662 34.0973 68.0509 34.0973C67.0593 34.0973 66.4447 33.3783 66.1933 32.7721L64.783 33.3643C65.1878 34.351 66.2635 35.5625 68.0509 35.5625C69.9502 35.5625 71.5564 34.435 71.5564 31.6874V25.0071H70.0204V25.6133ZM72.6737 31.9971H74.2938V21.0612H72.6737V31.9971ZM76.6811 28.3897C76.6395 26.9525 77.7845 26.2195 78.608 26.2195C79.2512 26.2195 79.7956 26.5431 79.9767 27.0085L76.6811 28.3897ZM81.7087 27.1493C81.4018 26.3183 80.4656 24.7823 78.5526 24.7823C76.6533 24.7823 75.0757 26.2895 75.0757 28.5025C75.0757 30.5879 76.6395 32.2228 78.7337 32.2228C80.424 32.2228 81.4018 31.1801 81.8066 30.5739L80.5497 29.728C80.131 30.3482 79.5581 30.7567 78.7337 30.7567C77.9102 30.7567 77.3234 30.3762 76.9463 29.6301L81.876 27.5718L81.7087 27.1493ZM42.4345 25.9238V27.5018H46.1766C46.0647 28.3897 45.7718 29.0379 45.3253 29.4884C44.7801 30.0386 43.928 30.6447 42.4345 30.6447C40.1296 30.6447 38.3283 28.7702 38.3283 26.4452C38.3283 24.1192 40.1296 22.2456 42.4345 22.2456C43.6775 22.2456 44.5851 22.7389 45.2551 23.3731L46.3586 22.2596C45.4224 21.3577 44.1803 20.6667 42.4345 20.6667C39.2784 20.6667 36.625 23.2603 36.625 26.4452C36.625 29.6301 39.2784 32.2228 42.4345 32.2228C44.1378 32.2228 45.4224 31.6586 46.4279 30.6019C47.4621 29.5592 47.7828 28.094 47.7828 26.9096C47.7828 26.5431 47.7551 26.2055 47.6987 25.9238H42.4345ZM52.038 30.7567C50.9207 30.7567 49.9568 29.8269 49.9568 28.5025C49.9568 27.1633 50.9207 26.2475 52.038 26.2475C53.1545 26.2475 54.1184 27.1633 54.1184 28.5025C54.1184 29.8269 53.1545 30.7567 52.038 30.7567ZM52.038 24.7823C49.9984 24.7823 48.3367 26.3463 48.3367 28.5025C48.3367 30.6447 49.9984 32.2228 52.038 32.2228C54.0768 32.2228 55.7385 30.6447 55.7385 28.5025C55.7385 26.3463 54.0768 24.7823 52.038 24.7823ZM60.1108 30.7567C58.9935 30.7567 58.0296 29.8269 58.0296 28.5025C58.0296 27.1633 58.9935 26.2475 60.1108 26.2475C61.2281 26.2475 62.1912 27.1633 62.1912 28.5025C62.1912 29.8269 61.2281 30.7567 60.1108 30.7567ZM60.1108 24.7823C58.072 24.7823 56.4103 26.3463 56.4103 28.5025C56.4103 30.6447 58.072 32.2228 60.1108 32.2228C62.1496 32.2228 63.8113 30.6447 63.8113 28.5025C63.8113 26.3463 62.1496 24.7823 60.1108 24.7823Z" fill="#111111" style="fill:#111111;fill:color(display-p3 0.0667 0.0667 0.0667);fill-opacity:1;"/>
</svg>
