<svg width="120" height="76" viewBox="0 0 120 76" fill="none" xmlns="http://www.w3.org/2000/svg">
<path d="M87.5717 44.7297C89.8898 45.3657 93.2373 52.0606 97.4802 54.7386C101.497 57.2743 106.882 57.6216 111.196 55.6382C113.966 54.3662 116.506 51.8974 117.636 49.094C118.406 47.1901 119.184 43.2527 117.925 41.3906C117.331 40.5161 115.628 40.3278 114.653 40.7337C113.678 41.1396 112.966 42.0057 112.422 42.9095C111.924 43.7339 111.523 44.6167 111.234 45.5373C111.234 39.922 107.631 40.445 106.376 42.1187C105.614 43.1355 105.476 44.1439 105.322 45.2444C105.008 45.0394 105.376 42.0183 103.2 42.1857C102.016 42.2777 101.359 43.5205 100.89 44.6126C100.551 45.4076 98.2292 46.1315 96.5513 46.3281C95.0742 44.7339 93.4339 43.1983 91.3836 42.5037C89.212 41.7714 87.3793 42.0141 85.2871 42.4325V45.7716C85.2871 45.7716 87.2663 44.6418 87.5717 44.7255V44.7297Z" fill="white" stroke="black" style="fill:white;fill-opacity:1;stroke:black;stroke-opacity:1;" stroke-width="2" stroke-linecap="round" stroke-linejoin="round"/>
<path d="M96.647 46.4336C96.7014 46.4922 96.7516 46.5466 96.806 46.6051C98.35 48.2956 99.8605 50.099 101.856 51.2163C103.857 52.3376 106.509 52.6306 108.359 51.2748" stroke="black" style="stroke:black;stroke-opacity:1;" stroke-width="2" stroke-linecap="round" stroke-linejoin="round"/>
<path d="M63.8046 22.1046L68.4785 22L68.4994 22.7615C76.0897 25.1048 81.8515 33.3939 82.1319 43.3902C82.408 53.3865 77.1149 61.9183 69.6627 64.5962L69.6835 65.362L65.0097 65.4666C55.2226 65.6841 47.0172 56.1523 46.6824 44.181C46.3477 32.2055 54.0134 22.3264 63.8004 22.1088L63.8046 22.1046Z" fill="#F8E958" stroke="black" style="fill:#F8E958;fill:color(display-p3 0.9725 0.9137 0.3451);fill-opacity:1;stroke:black;stroke-opacity:1;" stroke-width="2" stroke-linecap="round" stroke-linejoin="round"/>
<path d="M63.8046 22.1046L68.4785 22L68.4994 22.7615C76.0897 25.1048 81.8515 33.3939 82.1319 43.3902C82.408 53.3865 77.1149 61.9183 69.6627 64.5962L69.6835 65.362L65.0097 65.4666C55.2226 65.6841 47.0172 56.1523 46.6824 44.181C46.3477 32.2055 54.0134 22.3264 63.8004 22.1088L63.8046 22.1046Z" fill="#F8E958" style="fill:#F8E958;fill:color(display-p3 0.9725 0.9137 0.3451);fill-opacity:1;"/>
<path d="M63.8046 22.1046L68.4785 22L68.4994 22.7615C76.0897 25.1048 81.8515 33.3939 82.1319 43.3902C82.408 53.3865 77.1149 61.9183 69.6627 64.5962L69.6835 65.362L65.0097 65.4666C55.2226 65.6841 47.0172 56.1523 46.6824 44.181C46.3477 32.2055 54.0134 22.3264 63.8004 22.1088L63.8046 22.1046Z" stroke="black" style="stroke:black;stroke-opacity:1;" stroke-width="2" stroke-linecap="round" stroke-linejoin="round"/>
<path d="M51.3649 44.3782C50.8963 32.4111 58.4489 22.3939 68.2318 22.0131C78.0147 21.6324 86.3248 31.0219 86.7934 42.9932C87.262 54.9604 79.7094 64.9776 69.9265 65.3584C60.1436 65.7391 51.8336 56.3495 51.3649 44.3782Z" fill="#F8E958" stroke="black" style="fill:#F8E958;fill:color(display-p3 0.9725 0.9137 0.3451);fill-opacity:1;stroke:black;stroke-opacity:1;" stroke-width="2" stroke-linecap="round" stroke-linejoin="round"/>
<path d="M75.9566 49.4908C75.9566 49.4908 76.6177 37.3019 68.814 37.2559" stroke="black" style="stroke:black;stroke-opacity:1;" stroke-width="2" stroke-linecap="round" stroke-linejoin="round"/>
<path d="M62.1901 49.7669C62.1901 49.7669 61.0101 37.5864 68.8138 37.2559" stroke="black" style="stroke:black;stroke-opacity:1;" stroke-width="2" stroke-linecap="round" stroke-linejoin="round"/>
<path d="M68.6294 34.8125L69.0059 49.1521" stroke="black" style="stroke:black;stroke-opacity:1;" stroke-width="2" stroke-linecap="round" stroke-linejoin="round"/>
<path d="M6.46326 40.5821C6.81056 40.5402 7.19133 40.5611 7.56374 40.6281C7.34197 38.8832 7.64323 37.0128 9.12866 36.2346C10.1957 35.6739 11.5556 35.9375 12.5598 36.6112C13.5641 37.2848 17.3969 43.2809 21.6356 47.2309C22.5477 48.0803 23.4348 49.0009 24.3846 49.8001C27.1379 48.2351 29.887 46.666 32.6403 45.1011C34.5818 43.9964 36.6405 42.8792 38.7536 42.0466C41.1344 40.8708 45.0886 39.9795 47.9088 41.352C49.1767 41.9838 49.2687 43.9881 47.9507 45.0927C47.1305 45.0342 46.2141 45.0676 45.3145 45.2099C43.6701 45.4735 42.1763 46.3271 41.0466 47.5489C40.8834 47.7247 40.7244 47.9046 40.5695 48.0887C39.0172 49.9256 37.787 52.0471 36.0296 53.6873C32.5901 56.8925 25.0625 58.1478 20.7485 56.2565C17.7232 56.926 16.4763 56.6498 13.518 55.8004C2.33753 58.3486 -1.74215 45.3605 2.86058 44.1052C3.14511 44.0257 4.11587 43.6868 4.5343 45.3605C4.60544 44.7789 4.5929 42.419 4.86907 41.8625C4.98204 41.6365 5.11174 41.4147 5.26656 41.1971C5.51343 40.8457 5.95278 40.6574 6.46745 40.5988L6.46326 40.5821Z" fill="white" stroke="black" style="fill:white;fill-opacity:1;stroke:black;stroke-opacity:1;" stroke-width="2" stroke-linecap="round" stroke-linejoin="round"/>
<path d="M24.5391 49.9165C28.6983 52.8957 33.6148 50.5399 34.9747 48.293" stroke="black" style="stroke:black;stroke-opacity:1;" stroke-width="2" stroke-linecap="round" stroke-linejoin="round"/>
<path d="M20.3544 55.9812C14.2328 53.5877 9.40414 48.123 7.78063 41.7545C7.69695 41.4323 7.63001 41.0934 7.58398 40.7461" stroke="black" style="stroke:black;stroke-opacity:1;" stroke-width="2" stroke-linecap="round" stroke-linejoin="round"/>
<path d="M13.2415 55.7041C7.87721 54.5492 4.52979 48.6912 4.52979 45.3438" stroke="black" style="stroke:black;stroke-opacity:1;" stroke-width="2" stroke-linecap="round" stroke-linejoin="round"/>
</svg>
