<svg width="24" height="25" viewBox="0 0 24 25" fill="none" xmlns="http://www.w3.org/2000/svg">
<path d="M12.0146 2.24609C17.5198 2.24635 22 6.72721 22 12.2324C21.9998 17.7374 17.5196 22.2175 12.0146 22.2178C10.482 22.2178 8.97862 21.8672 7.61719 21.1992C7.08295 20.9371 6.44376 20.8364 5.81152 20.999L3.27539 21.6514C2.9021 21.7475 2.56461 21.4033 2.66895 21.0322L3.33008 18.6846C3.51729 18.0195 3.40907 17.3413 3.12207 16.7812C2.40433 15.3807 2.02839 13.8263 2.02832 12.2324C2.02832 6.72707 6.50929 2.24609 12.0146 2.24609Z" stroke="white" stroke-width="2"/>
<path d="M8.92823 7.12218L8.21538 7.08332C7.99147 7.07111 7.77185 7.14592 7.60261 7.29294C7.25702 7.59304 6.70444 8.17324 6.53471 8.92929C6.28161 10.0566 6.67276 11.437 7.68509 12.8175C8.69742 14.1979 10.584 16.4066 13.92 17.3499C14.995 17.6538 15.8406 17.4489 16.4931 17.0315C17.0098 16.701 17.3661 16.1704 17.4944 15.5706L17.6083 15.039C17.6444 14.8701 17.5586 14.6986 17.4017 14.6263L14.9925 13.5158C14.8361 13.4438 14.6506 13.4893 14.5454 13.6256L13.5996 14.8517C13.5282 14.9443 13.4059 14.9811 13.2955 14.9423C12.6478 14.7146 10.4782 13.806 9.28769 11.5128C9.23606 11.4134 9.2489 11.2926 9.32213 11.2078L10.226 10.1621C10.3184 10.0554 10.3417 9.90525 10.2862 9.77549L9.24773 7.34588C9.19244 7.21653 9.06855 7.12984 8.92823 7.12218Z" fill="white"/>
</svg>
